<svg width="1301" height="720" viewBox="0 0 1301 720" fill="none" xmlns="http://www.w3.org/2000/svg">
<rect width="1301" height="720" fill="white"/>
<g clip-path="url(#clip0_18_2)">
<rect x="28" y="20" width="238" height="100" fill="white"/>
<path d="M69.8628 42.7256C71.4448 42.7256 72.75 42.9233 73.7783 43.3188C74.8154 43.7056 75.5889 44.2988 76.0986 45.0986C76.6084 45.8984 76.8633 46.918 76.8633 48.1572C76.8633 49.1768 76.6787 50.0293 76.3096 50.7148C75.9404 51.3916 75.457 51.9409 74.8594 52.3628C74.2617 52.7847 73.6245 53.1099 72.9478 53.3384L78.2344 62H75.624L70.9043 53.958H66.8965V62H64.6553V42.7256H69.8628ZM69.731 44.6636H66.8965V52.0596H69.9551C71.5283 52.0596 72.6841 51.7388 73.4224 51.0972C74.1694 50.4556 74.543 49.5107 74.543 48.2627C74.543 46.9531 74.1475 46.0259 73.3564 45.481C72.5742 44.936 71.3657 44.6636 69.731 44.6636ZM86.5532 47.2871C87.7837 47.2871 88.8384 47.5596 89.7173 48.1045C90.5962 48.6494 91.2686 49.4141 91.7344 50.3984C92.2002 51.374 92.4331 52.5166 92.4331 53.8262V55.1841H82.4531C82.4795 56.8804 82.9014 58.1724 83.7188 59.0601C84.5361 59.9478 85.6875 60.3916 87.1729 60.3916C88.0869 60.3916 88.8955 60.3081 89.5986 60.1411C90.3018 59.9741 91.0312 59.728 91.7871 59.4028V61.3276C91.0576 61.6528 90.3325 61.8901 89.6118 62.0396C88.8999 62.189 88.0562 62.2637 87.0806 62.2637C85.6919 62.2637 84.479 61.9824 83.4419 61.4199C82.4136 60.8486 81.6138 60.0137 81.0425 58.915C80.4712 57.8164 80.1855 56.4717 80.1855 54.8809C80.1855 53.3252 80.4448 51.9805 80.9634 50.8467C81.4907 49.7041 82.229 48.8252 83.1782 48.21C84.1362 47.5947 85.2612 47.2871 86.5532 47.2871ZM86.5269 49.0801C85.3579 49.0801 84.4263 49.4624 83.7319 50.2271C83.0376 50.9917 82.6245 52.0596 82.4927 53.4307H90.1392C90.1304 52.5693 89.9941 51.8135 89.7305 51.1631C89.4756 50.5039 89.0845 49.9941 88.5571 49.6338C88.0298 49.2646 87.353 49.0801 86.5269 49.0801ZM105.841 68.46V62.2637C105.841 61.9209 105.85 61.5254 105.867 61.0771C105.885 60.6289 105.916 60.2422 105.959 59.917H105.814C105.41 60.585 104.834 61.1431 104.087 61.5913C103.34 62.0396 102.378 62.2637 101.2 62.2637C99.4336 62.2637 98.0142 61.6396 96.9419 60.3916C95.8696 59.1436 95.3335 57.2803 95.3335 54.8018C95.3335 53.1758 95.5796 51.8047 96.0718 50.6885C96.564 49.5723 97.2583 48.7285 98.1548 48.1572C99.0601 47.5771 100.115 47.2871 101.319 47.2871C102.47 47.2871 103.411 47.5156 104.14 47.9727C104.87 48.4209 105.441 48.9702 105.854 49.6206H105.959L106.289 47.5508H108.029V68.46H105.841ZM101.609 60.4443C102.628 60.4443 103.446 60.2554 104.061 59.8774C104.676 59.4907 105.125 58.9106 105.406 58.1372C105.696 57.3638 105.85 56.4014 105.867 55.25V54.7886C105.867 52.9253 105.551 51.5146 104.918 50.5566C104.285 49.5898 103.182 49.1064 101.609 49.1064C100.255 49.1064 99.249 49.625 98.5898 50.6621C97.9307 51.6904 97.6011 53.0879 97.6011 54.8545C97.6011 56.6211 97.9307 57.9966 98.5898 58.981C99.249 59.9565 100.255 60.4443 101.609 60.4443ZM124.614 47.5508V62H122.821L122.505 59.9697H122.386C122.087 60.4707 121.701 60.8926 121.226 61.2354C120.751 61.5781 120.215 61.833 119.618 62C119.029 62.1758 118.4 62.2637 117.732 62.2637C116.59 62.2637 115.632 62.0791 114.858 61.71C114.085 61.3408 113.5 60.7695 113.105 59.9961C112.718 59.2227 112.525 58.2295 112.525 57.0166V47.5508H114.74V56.8584C114.74 58.0625 115.012 58.9634 115.557 59.561C116.102 60.1499 116.933 60.4443 118.049 60.4443C119.121 60.4443 119.974 60.2422 120.606 59.8379C121.248 59.4336 121.709 58.8403 121.991 58.0581C122.272 57.2671 122.413 56.3003 122.413 55.1577V47.5508H124.614ZM131.43 47.5508V62H129.242V47.5508H131.43ZM130.362 42.1455C130.723 42.1455 131.03 42.2642 131.285 42.5015C131.549 42.73 131.681 43.0903 131.681 43.5825C131.681 44.0659 131.549 44.4263 131.285 44.6636C131.03 44.9009 130.723 45.0195 130.362 45.0195C129.984 45.0195 129.668 44.9009 129.413 44.6636C129.167 44.4263 129.044 44.0659 129.044 43.5825C129.044 43.0903 129.167 42.73 129.413 42.5015C129.668 42.2642 129.984 42.1455 130.362 42.1455ZM145.418 58.0449C145.418 58.9678 145.185 59.7456 144.719 60.3784C144.262 61.0024 143.603 61.4727 142.742 61.7891C141.889 62.1055 140.87 62.2637 139.683 62.2637C138.672 62.2637 137.798 62.1846 137.06 62.0264C136.321 61.8682 135.675 61.644 135.122 61.354V59.3369C135.71 59.627 136.414 59.8906 137.231 60.1279C138.048 60.3652 138.883 60.4839 139.736 60.4839C140.984 60.4839 141.889 60.2817 142.452 59.8774C143.014 59.4731 143.295 58.9238 143.295 58.2295C143.295 57.834 143.181 57.4868 142.953 57.188C142.733 56.8804 142.359 56.5859 141.832 56.3047C141.305 56.0146 140.575 55.6982 139.644 55.3555C138.721 55.0039 137.921 54.6567 137.244 54.314C136.576 53.9624 136.058 53.5361 135.688 53.0352C135.328 52.5342 135.148 51.8838 135.148 51.084C135.148 49.8623 135.64 48.9263 136.625 48.2759C137.618 47.6167 138.918 47.2871 140.527 47.2871C141.397 47.2871 142.21 47.375 142.966 47.5508C143.73 47.7178 144.442 47.9463 145.102 48.2363L144.363 49.9897C143.766 49.7349 143.128 49.5195 142.452 49.3438C141.775 49.168 141.085 49.0801 140.382 49.0801C139.371 49.0801 138.593 49.2471 138.048 49.5811C137.512 49.915 137.244 50.3721 137.244 50.9521C137.244 51.4004 137.367 51.7695 137.613 52.0596C137.868 52.3496 138.272 52.6221 138.826 52.877C139.38 53.1318 140.109 53.4307 141.015 53.7734C141.92 54.1074 142.702 54.4546 143.361 54.8149C144.021 55.1665 144.526 55.5972 144.877 56.1069C145.238 56.6079 145.418 57.2539 145.418 58.0449ZM151.126 47.5508V62H148.938V47.5508H151.126ZM150.059 42.1455C150.419 42.1455 150.727 42.2642 150.981 42.5015C151.245 42.73 151.377 43.0903 151.377 43.5825C151.377 44.0659 151.245 44.4263 150.981 44.6636C150.727 44.9009 150.419 45.0195 150.059 45.0195C149.681 45.0195 149.364 44.9009 149.109 44.6636C148.863 44.4263 148.74 44.0659 148.74 43.5825C148.74 43.0903 148.863 42.73 149.109 42.5015C149.364 42.2642 149.681 42.1455 150.059 42.1455ZM160.434 60.4707C160.794 60.4707 161.164 60.4399 161.542 60.3784C161.919 60.3169 162.227 60.2422 162.464 60.1543V61.855C162.209 61.9692 161.854 62.0659 161.396 62.145C160.948 62.2241 160.509 62.2637 160.078 62.2637C159.313 62.2637 158.619 62.1318 157.995 61.8682C157.371 61.5957 156.87 61.1387 156.492 60.4971C156.123 59.8555 155.938 58.9678 155.938 57.834V49.2646H153.882V48.1968L155.952 47.3398L156.822 44.2021H158.14V47.5508H162.372V49.2646H158.14V57.7681C158.14 58.6733 158.347 59.3501 158.76 59.7983C159.182 60.2466 159.74 60.4707 160.434 60.4707ZM177.85 54.749C177.85 55.9355 177.696 56.9946 177.388 57.9263C177.081 58.8579 176.637 59.6445 176.057 60.2861C175.477 60.9277 174.773 61.4199 173.947 61.7627C173.13 62.0967 172.203 62.2637 171.166 62.2637C170.199 62.2637 169.311 62.0967 168.502 61.7627C167.703 61.4199 167.008 60.9277 166.419 60.2861C165.839 59.6445 165.387 58.8579 165.062 57.9263C164.745 56.9946 164.587 55.9355 164.587 54.749C164.587 53.167 164.855 51.8223 165.391 50.7148C165.927 49.5986 166.692 48.7505 167.685 48.1704C168.687 47.5815 169.878 47.2871 171.258 47.2871C172.576 47.2871 173.728 47.5815 174.712 48.1704C175.705 48.7593 176.474 49.6118 177.019 50.728C177.573 51.8354 177.85 53.1758 177.85 54.749ZM166.854 54.749C166.854 55.9092 167.008 56.9155 167.316 57.7681C167.624 58.6206 168.098 59.2798 168.74 59.7456C169.381 60.2114 170.208 60.4443 171.218 60.4443C172.22 60.4443 173.042 60.2114 173.684 59.7456C174.334 59.2798 174.813 58.6206 175.121 57.7681C175.428 56.9155 175.582 55.9092 175.582 54.749C175.582 53.5977 175.428 52.6045 175.121 51.7695C174.813 50.9258 174.338 50.2754 173.697 49.8184C173.055 49.3613 172.225 49.1328 171.205 49.1328C169.702 49.1328 168.599 49.6294 167.896 50.6226C167.202 51.6157 166.854 52.9912 166.854 54.749ZM190.98 58.0449C190.98 58.9678 190.748 59.7456 190.282 60.3784C189.825 61.0024 189.166 61.4727 188.304 61.7891C187.452 62.1055 186.432 62.2637 185.246 62.2637C184.235 62.2637 183.36 62.1846 182.622 62.0264C181.884 61.8682 181.238 61.644 180.684 61.354V59.3369C181.273 59.627 181.976 59.8906 182.793 60.1279C183.611 60.3652 184.446 60.4839 185.298 60.4839C186.546 60.4839 187.452 60.2817 188.014 59.8774C188.577 59.4731 188.858 58.9238 188.858 58.2295C188.858 57.834 188.744 57.4868 188.515 57.188C188.295 56.8804 187.922 56.5859 187.395 56.3047C186.867 56.0146 186.138 55.6982 185.206 55.3555C184.283 55.0039 183.483 54.6567 182.807 54.314C182.139 53.9624 181.62 53.5361 181.251 53.0352C180.891 52.5342 180.71 51.8838 180.71 51.084C180.71 49.8623 181.203 48.9263 182.187 48.2759C183.18 47.6167 184.481 47.2871 186.089 47.2871C186.959 47.2871 187.772 47.375 188.528 47.5508C189.293 47.7178 190.005 47.9463 190.664 48.2363L189.926 49.9897C189.328 49.7349 188.691 49.5195 188.014 49.3438C187.337 49.168 186.647 49.0801 185.944 49.0801C184.934 49.0801 184.156 49.2471 183.611 49.5811C183.075 49.915 182.807 50.3721 182.807 50.9521C182.807 51.4004 182.93 51.7695 183.176 52.0596C183.431 52.3496 183.835 52.6221 184.389 52.877C184.942 53.1318 185.672 53.4307 186.577 53.7734C187.482 54.1074 188.265 54.4546 188.924 54.8149C189.583 55.1665 190.088 55.5972 190.44 56.1069C190.8 56.6079 190.98 57.2539 190.98 58.0449ZM206.656 62.2637C204.828 62.2637 203.377 61.6396 202.305 60.3916C201.242 59.1436 200.71 57.2891 200.71 54.8281C200.71 52.3408 201.255 50.4644 202.345 49.1987C203.435 47.9243 204.885 47.2871 206.695 47.2871C207.46 47.2871 208.128 47.3882 208.699 47.5903C209.271 47.7925 209.763 48.0649 210.176 48.4077C210.589 48.7417 210.936 49.124 211.217 49.5547H211.375C211.34 49.2822 211.305 48.9087 211.27 48.4341C211.235 47.9595 211.217 47.5728 211.217 47.2739V41.4863H213.406V62H211.639L211.31 59.9434H211.217C210.945 60.374 210.598 60.7651 210.176 61.1167C209.763 61.4683 209.266 61.7495 208.686 61.9604C208.115 62.1626 207.438 62.2637 206.656 62.2637ZM206.999 60.4443C208.545 60.4443 209.64 60.0049 210.281 59.126C210.923 58.2471 211.244 56.9419 211.244 55.2104V54.8149C211.244 52.978 210.936 51.5674 210.321 50.583C209.714 49.5986 208.607 49.1064 206.999 49.1064C205.654 49.1064 204.647 49.625 203.979 50.6621C203.312 51.6904 202.978 53.0967 202.978 54.8809C202.978 56.6562 203.307 58.0273 203.966 58.9941C204.634 59.9609 205.645 60.4443 206.999 60.4443ZM230.505 54.749C230.505 55.9355 230.351 56.9946 230.043 57.9263C229.736 58.8579 229.292 59.6445 228.712 60.2861C228.132 60.9277 227.429 61.4199 226.603 61.7627C225.785 62.0967 224.858 62.2637 223.821 62.2637C222.854 62.2637 221.966 62.0967 221.158 61.7627C220.358 61.4199 219.664 60.9277 219.075 60.2861C218.495 59.6445 218.042 58.8579 217.717 57.9263C217.4 56.9946 217.242 55.9355 217.242 54.749C217.242 53.167 217.51 51.8223 218.046 50.7148C218.583 49.5986 219.347 48.7505 220.34 48.1704C221.342 47.5815 222.533 47.2871 223.913 47.2871C225.231 47.2871 226.383 47.5815 227.367 48.1704C228.36 48.7593 229.129 49.6118 229.674 50.728C230.228 51.8354 230.505 53.1758 230.505 54.749ZM219.51 54.749C219.51 55.9092 219.664 56.9155 219.971 57.7681C220.279 58.6206 220.753 59.2798 221.395 59.7456C222.037 60.2114 222.863 60.4443 223.874 60.4443C224.875 60.4443 225.697 60.2114 226.339 59.7456C226.989 59.2798 227.468 58.6206 227.776 57.7681C228.083 56.9155 228.237 55.9092 228.237 54.749C228.237 53.5977 228.083 52.6045 227.776 51.7695C227.468 50.9258 226.994 50.2754 226.352 49.8184C225.71 49.3613 224.88 49.1328 223.86 49.1328C222.357 49.1328 221.254 49.6294 220.551 50.6226C219.857 51.6157 219.51 52.9912 219.51 54.749ZM113.5 99H110.917L100.409 82.8105H100.304C100.33 83.2412 100.361 83.7334 100.396 84.2871C100.431 84.832 100.458 85.4165 100.475 86.0405C100.501 86.6558 100.515 87.2842 100.515 87.9258V99H98.4316V79.7256H101.002L111.47 95.8623H111.562C111.545 95.5547 111.523 95.1196 111.497 94.5571C111.47 93.9858 111.444 93.375 111.417 92.7246C111.4 92.0654 111.391 91.4546 111.391 90.8921V79.7256H113.5V99ZM123.995 84.2871C125.225 84.2871 126.28 84.5596 127.159 85.1045C128.038 85.6494 128.71 86.4141 129.176 87.3984C129.642 88.374 129.875 89.5166 129.875 90.8262V92.1841H119.895C119.921 93.8804 120.343 95.1724 121.16 96.0601C121.978 96.9478 123.129 97.3916 124.614 97.3916C125.528 97.3916 126.337 97.3081 127.04 97.1411C127.743 96.9741 128.473 96.728 129.229 96.4028V98.3276C128.499 98.6528 127.774 98.8901 127.053 99.0396C126.341 99.189 125.498 99.2637 124.522 99.2637C123.133 99.2637 121.92 98.9824 120.883 98.4199C119.855 97.8486 119.055 97.0137 118.484 95.915C117.913 94.8164 117.627 93.4717 117.627 91.8809C117.627 90.3252 117.886 88.9805 118.405 87.8467C118.932 86.7041 119.67 85.8252 120.62 85.21C121.578 84.5947 122.703 84.2871 123.995 84.2871ZM123.968 86.0801C122.799 86.0801 121.868 86.4624 121.173 87.2271C120.479 87.9917 120.066 89.0596 119.934 90.4307H127.581C127.572 89.5693 127.436 88.8135 127.172 88.1631C126.917 87.5039 126.526 86.9941 125.999 86.6338C125.471 86.2646 124.794 86.0801 123.968 86.0801ZM137.626 105.486C135.728 105.486 134.265 105.13 133.236 104.418C132.208 103.715 131.694 102.727 131.694 101.452C131.694 100.547 131.979 99.7734 132.551 99.1318C133.131 98.4902 133.931 98.064 134.95 97.853C134.572 97.6772 134.247 97.4136 133.975 97.062C133.711 96.7104 133.579 96.3062 133.579 95.8491C133.579 95.3218 133.724 94.8604 134.014 94.4648C134.313 94.0605 134.766 93.6738 135.372 93.3047C134.616 92.9971 134.001 92.4785 133.526 91.749C133.061 91.0107 132.828 90.1538 132.828 89.1782C132.828 88.1411 133.043 87.2578 133.474 86.5283C133.904 85.79 134.528 85.2275 135.346 84.8408C136.163 84.4541 137.152 84.2607 138.312 84.2607C138.567 84.2607 138.822 84.2739 139.077 84.3003C139.34 84.3179 139.591 84.3486 139.828 84.3926C140.065 84.4277 140.272 84.4717 140.448 84.5244H145.405V85.9351L142.742 86.2646C143.005 86.6074 143.225 87.0205 143.401 87.5039C143.577 87.9873 143.665 88.5234 143.665 89.1123C143.665 90.5537 143.177 91.7007 142.201 92.5532C141.226 93.397 139.885 93.8188 138.18 93.8188C137.776 93.8188 137.363 93.7837 136.941 93.7134C136.51 93.9507 136.181 94.2144 135.952 94.5044C135.732 94.7944 135.623 95.1284 135.623 95.5063C135.623 95.7876 135.706 96.0117 135.873 96.1787C136.049 96.3457 136.299 96.4688 136.625 96.5479C136.95 96.6182 137.341 96.6533 137.798 96.6533H140.342C141.916 96.6533 143.12 96.9829 143.955 97.6421C144.798 98.3013 145.22 99.2637 145.22 100.529C145.22 102.129 144.57 103.355 143.269 104.208C141.968 105.06 140.087 105.486 137.626 105.486ZM137.692 103.772C138.888 103.772 139.876 103.649 140.659 103.403C141.45 103.166 142.039 102.819 142.425 102.362C142.821 101.914 143.019 101.377 143.019 100.753C143.019 100.173 142.887 99.7339 142.623 99.4351C142.359 99.145 141.973 98.9517 141.463 98.855C140.953 98.7495 140.329 98.6968 139.591 98.6968H137.086C136.436 98.6968 135.869 98.7979 135.385 99C134.902 99.2021 134.528 99.501 134.265 99.8965C134.01 100.292 133.882 100.784 133.882 101.373C133.882 102.155 134.212 102.749 134.871 103.153C135.53 103.566 136.471 103.772 137.692 103.772ZM138.259 92.2236C139.305 92.2236 140.092 91.96 140.619 91.4326C141.146 90.9053 141.41 90.1362 141.41 89.1255C141.41 88.0444 141.142 87.2358 140.606 86.6997C140.07 86.1548 139.279 85.8823 138.233 85.8823C137.231 85.8823 136.458 86.1636 135.913 86.7261C135.376 87.2798 135.108 88.0928 135.108 89.165C135.108 90.1494 135.381 90.9053 135.926 91.4326C136.471 91.96 137.249 92.2236 138.259 92.2236ZM160.711 91.749C160.711 92.9355 160.557 93.9946 160.25 94.9263C159.942 95.8579 159.498 96.6445 158.918 97.2861C158.338 97.9277 157.635 98.4199 156.809 98.7627C155.991 99.0967 155.064 99.2637 154.027 99.2637C153.06 99.2637 152.172 99.0967 151.364 98.7627C150.564 98.4199 149.87 97.9277 149.281 97.2861C148.701 96.6445 148.248 95.8579 147.923 94.9263C147.606 93.9946 147.448 92.9355 147.448 91.749C147.448 90.167 147.716 88.8223 148.252 87.7148C148.789 86.5986 149.553 85.7505 150.546 85.1704C151.548 84.5815 152.739 84.2871 154.119 84.2871C155.438 84.2871 156.589 84.5815 157.573 85.1704C158.566 85.7593 159.335 86.6118 159.88 87.728C160.434 88.8354 160.711 90.1758 160.711 91.749ZM149.716 91.749C149.716 92.9092 149.87 93.9155 150.177 94.7681C150.485 95.6206 150.959 96.2798 151.601 96.7456C152.243 97.2114 153.069 97.4443 154.08 97.4443C155.082 97.4443 155.903 97.2114 156.545 96.7456C157.195 96.2798 157.674 95.6206 157.982 94.7681C158.29 93.9155 158.443 92.9092 158.443 91.749C158.443 90.5977 158.29 89.6045 157.982 88.7695C157.674 87.9258 157.2 87.2754 156.558 86.8184C155.917 86.3613 155.086 86.1328 154.066 86.1328C152.563 86.1328 151.46 86.6294 150.757 87.6226C150.063 88.6157 149.716 89.9912 149.716 91.749ZM157.903 78.3149V78.5786C157.727 78.8335 157.485 79.1411 157.178 79.5015C156.879 79.853 156.545 80.2266 156.176 80.6221C155.807 81.0088 155.433 81.3779 155.055 81.7295C154.686 82.0811 154.343 82.3843 154.027 82.6392H152.563V82.3228C152.845 81.9888 153.152 81.5889 153.486 81.123C153.82 80.6484 154.146 80.165 154.462 79.6729C154.778 79.1719 155.042 78.7192 155.253 78.3149H157.903ZM170.282 99.2637C168.981 99.2637 167.834 98.9956 166.841 98.4595C165.848 97.9233 165.075 97.106 164.521 96.0073C163.967 94.9087 163.69 93.5244 163.69 91.8545C163.69 90.1055 163.98 88.6772 164.561 87.5698C165.149 86.4536 165.958 85.6274 166.986 85.0913C168.015 84.5552 169.184 84.2871 170.493 84.2871C171.214 84.2871 171.908 84.3618 172.576 84.5112C173.253 84.6519 173.807 84.832 174.237 85.0518L173.578 86.8843C173.139 86.7085 172.629 86.5503 172.049 86.4097C171.478 86.269 170.941 86.1987 170.44 86.1987C169.438 86.1987 168.604 86.4141 167.936 86.8447C167.276 87.2754 166.78 87.9082 166.446 88.7432C166.121 89.5781 165.958 90.6064 165.958 91.8281C165.958 92.9971 166.116 93.9946 166.433 94.8208C166.758 95.647 167.237 96.2798 167.87 96.7192C168.511 97.1499 169.311 97.3652 170.269 97.3652C171.034 97.3652 171.724 97.2861 172.339 97.1279C172.954 96.9609 173.512 96.7676 174.013 96.5479V98.499C173.53 98.7451 172.989 98.9341 172.392 99.0659C171.803 99.1978 171.1 99.2637 170.282 99.2637ZM179.629 84.5508V99H177.441V84.5508H179.629ZM178.562 79.1455C178.922 79.1455 179.229 79.2642 179.484 79.5015C179.748 79.73 179.88 80.0903 179.88 80.5825C179.88 81.0659 179.748 81.4263 179.484 81.6636C179.229 81.9009 178.922 82.0195 178.562 82.0195C178.184 82.0195 177.867 81.9009 177.612 81.6636C177.366 81.4263 177.243 81.0659 177.243 80.5825C177.243 80.0903 177.366 79.73 177.612 79.5015C177.867 79.2642 178.184 79.1455 178.562 79.1455ZM196.729 91.749C196.729 92.9355 196.575 93.9946 196.267 94.9263C195.959 95.8579 195.516 96.6445 194.936 97.2861C194.355 97.9277 193.652 98.4199 192.826 98.7627C192.009 99.0967 191.082 99.2637 190.044 99.2637C189.078 99.2637 188.19 99.0967 187.381 98.7627C186.582 98.4199 185.887 97.9277 185.298 97.2861C184.718 96.6445 184.266 95.8579 183.94 94.9263C183.624 93.9946 183.466 92.9355 183.466 91.749C183.466 90.167 183.734 88.8223 184.27 87.7148C184.806 86.5986 185.571 85.7505 186.564 85.1704C187.566 84.5815 188.757 84.2871 190.137 84.2871C191.455 84.2871 192.606 84.5815 193.591 85.1704C194.584 85.7593 195.353 86.6118 195.898 87.728C196.452 88.8354 196.729 90.1758 196.729 91.749ZM185.733 91.749C185.733 92.9092 185.887 93.9155 186.195 94.7681C186.502 95.6206 186.977 96.2798 187.619 96.7456C188.26 97.2114 189.086 97.4443 190.097 97.4443C191.099 97.4443 191.921 97.2114 192.562 96.7456C193.213 96.2798 193.692 95.6206 194 94.7681C194.307 93.9155 194.461 92.9092 194.461 91.749C194.461 90.5977 194.307 89.6045 194 88.7695C193.692 87.9258 193.217 87.2754 192.576 86.8184C191.934 86.3613 191.104 86.1328 190.084 86.1328C188.581 86.1328 187.478 86.6294 186.775 87.6226C186.081 88.6157 185.733 89.9912 185.733 91.749Z" fill="black"/>
</g>
<rect x="28.5" y="20.5" width="237" height="99" stroke="black"/>
<g clip-path="url(#clip1_18_2)">
<rect x="227" y="136" width="238" height="100" fill="white"/>
<path d="M268.863 158.726C270.445 158.726 271.75 158.923 272.778 159.319C273.815 159.706 274.589 160.299 275.099 161.099C275.608 161.898 275.863 162.918 275.863 164.157C275.863 165.177 275.679 166.029 275.31 166.715C274.94 167.392 274.457 167.941 273.859 168.363C273.262 168.785 272.625 169.11 271.948 169.338L277.234 178H274.624L269.904 169.958H265.896V178H263.655V158.726H268.863ZM268.731 160.664H265.896V168.06H268.955C270.528 168.06 271.684 167.739 272.422 167.097C273.169 166.456 273.543 165.511 273.543 164.263C273.543 162.953 273.147 162.026 272.356 161.481C271.574 160.936 270.366 160.664 268.731 160.664ZM285.553 163.287C286.784 163.287 287.838 163.56 288.717 164.104C289.596 164.649 290.269 165.414 290.734 166.398C291.2 167.374 291.433 168.517 291.433 169.826V171.184H281.453C281.479 172.88 281.901 174.172 282.719 175.06C283.536 175.948 284.688 176.392 286.173 176.392C287.087 176.392 287.896 176.308 288.599 176.141C289.302 175.974 290.031 175.728 290.787 175.403V177.328C290.058 177.653 289.333 177.89 288.612 178.04C287.9 178.189 287.056 178.264 286.081 178.264C284.692 178.264 283.479 177.982 282.442 177.42C281.414 176.849 280.614 176.014 280.042 174.915C279.471 173.816 279.186 172.472 279.186 170.881C279.186 169.325 279.445 167.98 279.963 166.847C280.491 165.704 281.229 164.825 282.178 164.21C283.136 163.595 284.261 163.287 285.553 163.287ZM285.527 165.08C284.358 165.08 283.426 165.462 282.732 166.227C282.038 166.992 281.625 168.06 281.493 169.431H289.139C289.13 168.569 288.994 167.813 288.73 167.163C288.476 166.504 288.084 165.994 287.557 165.634C287.03 165.265 286.353 165.08 285.527 165.08ZM304.841 184.46V178.264C304.841 177.921 304.85 177.525 304.867 177.077C304.885 176.629 304.916 176.242 304.959 175.917H304.814C304.41 176.585 303.834 177.143 303.087 177.591C302.34 178.04 301.378 178.264 300.2 178.264C298.434 178.264 297.014 177.64 295.942 176.392C294.87 175.144 294.333 173.28 294.333 170.802C294.333 169.176 294.58 167.805 295.072 166.688C295.564 165.572 296.258 164.729 297.155 164.157C298.06 163.577 299.115 163.287 300.319 163.287C301.47 163.287 302.411 163.516 303.14 163.973C303.87 164.421 304.441 164.97 304.854 165.621H304.959L305.289 163.551H307.029V184.46H304.841ZM300.609 176.444C301.628 176.444 302.446 176.255 303.061 175.877C303.676 175.491 304.125 174.911 304.406 174.137C304.696 173.364 304.85 172.401 304.867 171.25V170.789C304.867 168.925 304.551 167.515 303.918 166.557C303.285 165.59 302.182 165.106 300.609 165.106C299.255 165.106 298.249 165.625 297.59 166.662C296.931 167.69 296.601 169.088 296.601 170.854C296.601 172.621 296.931 173.997 297.59 174.981C298.249 175.957 299.255 176.444 300.609 176.444ZM323.614 163.551V178H321.821L321.505 175.97H321.386C321.087 176.471 320.701 176.893 320.226 177.235C319.751 177.578 319.215 177.833 318.618 178C318.029 178.176 317.4 178.264 316.732 178.264C315.59 178.264 314.632 178.079 313.858 177.71C313.085 177.341 312.5 176.77 312.105 175.996C311.718 175.223 311.525 174.229 311.525 173.017V163.551H313.74V172.858C313.74 174.062 314.012 174.963 314.557 175.561C315.102 176.15 315.933 176.444 317.049 176.444C318.121 176.444 318.974 176.242 319.606 175.838C320.248 175.434 320.709 174.84 320.991 174.058C321.272 173.267 321.413 172.3 321.413 171.158V163.551H323.614ZM330.43 163.551V178H328.242V163.551H330.43ZM329.362 158.146C329.723 158.146 330.03 158.264 330.285 158.501C330.549 158.73 330.681 159.09 330.681 159.583C330.681 160.066 330.549 160.426 330.285 160.664C330.03 160.901 329.723 161.02 329.362 161.02C328.984 161.02 328.668 160.901 328.413 160.664C328.167 160.426 328.044 160.066 328.044 159.583C328.044 159.09 328.167 158.73 328.413 158.501C328.668 158.264 328.984 158.146 329.362 158.146ZM344.418 174.045C344.418 174.968 344.185 175.746 343.719 176.378C343.262 177.002 342.603 177.473 341.742 177.789C340.889 178.105 339.87 178.264 338.683 178.264C337.672 178.264 336.798 178.185 336.06 178.026C335.321 177.868 334.675 177.644 334.122 177.354V175.337C334.71 175.627 335.414 175.891 336.231 176.128C337.048 176.365 337.883 176.484 338.736 176.484C339.984 176.484 340.889 176.282 341.452 175.877C342.014 175.473 342.295 174.924 342.295 174.229C342.295 173.834 342.181 173.487 341.953 173.188C341.733 172.88 341.359 172.586 340.832 172.305C340.305 172.015 339.575 171.698 338.644 171.355C337.721 171.004 336.921 170.657 336.244 170.314C335.576 169.962 335.058 169.536 334.688 169.035C334.328 168.534 334.148 167.884 334.148 167.084C334.148 165.862 334.64 164.926 335.625 164.276C336.618 163.617 337.918 163.287 339.527 163.287C340.397 163.287 341.21 163.375 341.966 163.551C342.73 163.718 343.442 163.946 344.102 164.236L343.363 165.99C342.766 165.735 342.128 165.52 341.452 165.344C340.775 165.168 340.085 165.08 339.382 165.08C338.371 165.08 337.593 165.247 337.048 165.581C336.512 165.915 336.244 166.372 336.244 166.952C336.244 167.4 336.367 167.77 336.613 168.06C336.868 168.35 337.272 168.622 337.826 168.877C338.38 169.132 339.109 169.431 340.015 169.773C340.92 170.107 341.702 170.455 342.361 170.815C343.021 171.167 343.526 171.597 343.877 172.107C344.238 172.608 344.418 173.254 344.418 174.045ZM350.126 163.551V178H347.938V163.551H350.126ZM349.059 158.146C349.419 158.146 349.727 158.264 349.981 158.501C350.245 158.73 350.377 159.09 350.377 159.583C350.377 160.066 350.245 160.426 349.981 160.664C349.727 160.901 349.419 161.02 349.059 161.02C348.681 161.02 348.364 160.901 348.109 160.664C347.863 160.426 347.74 160.066 347.74 159.583C347.74 159.09 347.863 158.73 348.109 158.501C348.364 158.264 348.681 158.146 349.059 158.146ZM359.434 176.471C359.794 176.471 360.164 176.44 360.542 176.378C360.919 176.317 361.227 176.242 361.464 176.154V177.855C361.209 177.969 360.854 178.066 360.396 178.145C359.948 178.224 359.509 178.264 359.078 178.264C358.313 178.264 357.619 178.132 356.995 177.868C356.371 177.596 355.87 177.139 355.492 176.497C355.123 175.855 354.938 174.968 354.938 173.834V165.265H352.882V164.197L354.952 163.34L355.822 160.202H357.14V163.551H361.372V165.265H357.14V173.768C357.14 174.673 357.347 175.35 357.76 175.798C358.182 176.247 358.74 176.471 359.434 176.471ZM376.85 170.749C376.85 171.936 376.696 172.995 376.388 173.926C376.081 174.858 375.637 175.645 375.057 176.286C374.477 176.928 373.773 177.42 372.947 177.763C372.13 178.097 371.203 178.264 370.166 178.264C369.199 178.264 368.311 178.097 367.502 177.763C366.703 177.42 366.008 176.928 365.419 176.286C364.839 175.645 364.387 174.858 364.062 173.926C363.745 172.995 363.587 171.936 363.587 170.749C363.587 169.167 363.855 167.822 364.391 166.715C364.927 165.599 365.692 164.75 366.685 164.17C367.687 163.582 368.878 163.287 370.258 163.287C371.576 163.287 372.728 163.582 373.712 164.17C374.705 164.759 375.474 165.612 376.019 166.728C376.573 167.835 376.85 169.176 376.85 170.749ZM365.854 170.749C365.854 171.909 366.008 172.916 366.316 173.768C366.624 174.621 367.098 175.28 367.74 175.746C368.381 176.211 369.208 176.444 370.218 176.444C371.22 176.444 372.042 176.211 372.684 175.746C373.334 175.28 373.813 174.621 374.121 173.768C374.428 172.916 374.582 171.909 374.582 170.749C374.582 169.598 374.428 168.604 374.121 167.77C373.813 166.926 373.338 166.275 372.697 165.818C372.055 165.361 371.225 165.133 370.205 165.133C368.702 165.133 367.599 165.629 366.896 166.623C366.202 167.616 365.854 168.991 365.854 170.749ZM389.98 174.045C389.98 174.968 389.748 175.746 389.282 176.378C388.825 177.002 388.166 177.473 387.304 177.789C386.452 178.105 385.432 178.264 384.246 178.264C383.235 178.264 382.36 178.185 381.622 178.026C380.884 177.868 380.238 177.644 379.684 177.354V175.337C380.273 175.627 380.976 175.891 381.793 176.128C382.611 176.365 383.446 176.484 384.298 176.484C385.546 176.484 386.452 176.282 387.014 175.877C387.577 175.473 387.858 174.924 387.858 174.229C387.858 173.834 387.744 173.487 387.515 173.188C387.295 172.88 386.922 172.586 386.395 172.305C385.867 172.015 385.138 171.698 384.206 171.355C383.283 171.004 382.483 170.657 381.807 170.314C381.139 169.962 380.62 169.536 380.251 169.035C379.891 168.534 379.71 167.884 379.71 167.084C379.71 165.862 380.203 164.926 381.187 164.276C382.18 163.617 383.481 163.287 385.089 163.287C385.959 163.287 386.772 163.375 387.528 163.551C388.293 163.718 389.005 163.946 389.664 164.236L388.926 165.99C388.328 165.735 387.691 165.52 387.014 165.344C386.337 165.168 385.647 165.08 384.944 165.08C383.934 165.08 383.156 165.247 382.611 165.581C382.075 165.915 381.807 166.372 381.807 166.952C381.807 167.4 381.93 167.77 382.176 168.06C382.431 168.35 382.835 168.622 383.389 168.877C383.942 169.132 384.672 169.431 385.577 169.773C386.482 170.107 387.265 170.455 387.924 170.815C388.583 171.167 389.088 171.597 389.44 172.107C389.8 172.608 389.98 173.254 389.98 174.045ZM405.656 178.264C403.828 178.264 402.377 177.64 401.305 176.392C400.242 175.144 399.71 173.289 399.71 170.828C399.71 168.341 400.255 166.464 401.345 165.199C402.435 163.924 403.885 163.287 405.695 163.287C406.46 163.287 407.128 163.388 407.699 163.59C408.271 163.792 408.763 164.065 409.176 164.408C409.589 164.742 409.936 165.124 410.217 165.555H410.375C410.34 165.282 410.305 164.909 410.27 164.434C410.235 163.959 410.217 163.573 410.217 163.274V157.486H412.406V178H410.639L410.31 175.943H410.217C409.945 176.374 409.598 176.765 409.176 177.117C408.763 177.468 408.266 177.75 407.686 177.96C407.115 178.163 406.438 178.264 405.656 178.264ZM405.999 176.444C407.545 176.444 408.64 176.005 409.281 175.126C409.923 174.247 410.244 172.942 410.244 171.21V170.815C410.244 168.978 409.936 167.567 409.321 166.583C408.714 165.599 407.607 165.106 405.999 165.106C404.654 165.106 403.647 165.625 402.979 166.662C402.312 167.69 401.978 169.097 401.978 170.881C401.978 172.656 402.307 174.027 402.966 174.994C403.634 175.961 404.645 176.444 405.999 176.444ZM429.505 170.749C429.505 171.936 429.351 172.995 429.043 173.926C428.736 174.858 428.292 175.645 427.712 176.286C427.132 176.928 426.429 177.42 425.603 177.763C424.785 178.097 423.858 178.264 422.821 178.264C421.854 178.264 420.966 178.097 420.158 177.763C419.358 177.42 418.664 176.928 418.075 176.286C417.495 175.645 417.042 174.858 416.717 173.926C416.4 172.995 416.242 171.936 416.242 170.749C416.242 169.167 416.51 167.822 417.046 166.715C417.583 165.599 418.347 164.75 419.34 164.17C420.342 163.582 421.533 163.287 422.913 163.287C424.231 163.287 425.383 163.582 426.367 164.17C427.36 164.759 428.129 165.612 428.674 166.728C429.228 167.835 429.505 169.176 429.505 170.749ZM418.51 170.749C418.51 171.909 418.664 172.916 418.971 173.768C419.279 174.621 419.753 175.28 420.395 175.746C421.037 176.211 421.863 176.444 422.874 176.444C423.875 176.444 424.697 176.211 425.339 175.746C425.989 175.28 426.468 174.621 426.776 173.768C427.083 172.916 427.237 171.909 427.237 170.749C427.237 169.598 427.083 168.604 426.776 167.77C426.468 166.926 425.994 166.275 425.352 165.818C424.71 165.361 423.88 165.133 422.86 165.133C421.357 165.133 420.254 165.629 419.551 166.623C418.857 167.616 418.51 168.991 418.51 170.749ZM303.549 209.872C303.549 211.014 303.263 211.99 302.692 212.798C302.129 213.598 301.338 214.209 300.319 214.631C299.299 215.053 298.1 215.264 296.72 215.264C295.99 215.264 295.3 215.229 294.65 215.158C294 215.088 293.402 214.987 292.857 214.855C292.312 214.723 291.833 214.561 291.42 214.367V212.218C292.079 212.491 292.883 212.746 293.833 212.983C294.782 213.211 295.775 213.326 296.812 213.326C297.779 213.326 298.596 213.198 299.264 212.943C299.932 212.68 300.438 212.306 300.78 211.823C301.132 211.331 301.308 210.742 301.308 210.056C301.308 209.397 301.163 208.848 300.873 208.408C300.583 207.96 300.099 207.556 299.422 207.195C298.754 206.826 297.84 206.435 296.68 206.022C295.863 205.732 295.142 205.416 294.518 205.073C293.894 204.721 293.371 204.326 292.949 203.886C292.527 203.447 292.207 202.937 291.987 202.357C291.776 201.777 291.67 201.113 291.67 200.366C291.67 199.338 291.93 198.459 292.448 197.729C292.976 196.991 293.701 196.429 294.624 196.042C295.555 195.646 296.623 195.449 297.827 195.449C298.855 195.449 299.805 195.545 300.675 195.739C301.554 195.932 302.358 196.191 303.087 196.517L302.389 198.441C301.694 198.151 300.956 197.91 300.174 197.716C299.4 197.523 298.601 197.426 297.774 197.426C296.948 197.426 296.25 197.549 295.678 197.795C295.116 198.033 294.685 198.371 294.386 198.811C294.087 199.25 293.938 199.773 293.938 200.379C293.938 201.056 294.079 201.619 294.36 202.067C294.65 202.515 295.107 202.915 295.731 203.267C296.364 203.609 297.199 203.97 298.236 204.348C299.37 204.761 300.332 205.2 301.123 205.666C301.914 206.123 302.516 206.686 302.929 207.354C303.342 208.013 303.549 208.852 303.549 209.872ZM319.62 207.749C319.62 208.936 319.466 209.995 319.158 210.926C318.851 211.858 318.407 212.645 317.827 213.286C317.247 213.928 316.543 214.42 315.717 214.763C314.9 215.097 313.973 215.264 312.936 215.264C311.969 215.264 311.081 215.097 310.272 214.763C309.473 214.42 308.778 213.928 308.189 213.286C307.609 212.645 307.157 211.858 306.832 210.926C306.515 209.995 306.357 208.936 306.357 207.749C306.357 206.167 306.625 204.822 307.161 203.715C307.697 202.599 308.462 201.75 309.455 201.17C310.457 200.582 311.648 200.287 313.028 200.287C314.346 200.287 315.498 200.582 316.482 201.17C317.475 201.759 318.244 202.612 318.789 203.728C319.343 204.835 319.62 206.176 319.62 207.749ZM308.625 207.749C308.625 208.909 308.778 209.916 309.086 210.768C309.394 211.621 309.868 212.28 310.51 212.746C311.151 213.211 311.978 213.444 312.988 213.444C313.99 213.444 314.812 213.211 315.454 212.746C316.104 212.28 316.583 211.621 316.891 210.768C317.198 209.916 317.352 208.909 317.352 207.749C317.352 206.598 317.198 205.604 316.891 204.77C316.583 203.926 316.108 203.275 315.467 202.818C314.825 202.361 313.995 202.133 312.975 202.133C311.472 202.133 310.369 202.629 309.666 203.623C308.972 204.616 308.625 205.991 308.625 207.749ZM329.837 202.265H326.238V215H324.049V202.265H321.492V201.21L324.049 200.485V199.522C324.049 198.31 324.229 197.325 324.59 196.569C324.95 195.805 325.473 195.242 326.159 194.882C326.844 194.521 327.679 194.341 328.664 194.341C329.217 194.341 329.723 194.39 330.18 194.486C330.646 194.583 331.054 194.693 331.406 194.816L330.839 196.543C330.54 196.446 330.202 196.358 329.824 196.279C329.455 196.191 329.077 196.147 328.69 196.147C327.855 196.147 327.235 196.42 326.831 196.965C326.436 197.501 326.238 198.345 326.238 199.496V200.551H329.837V202.265ZM337.167 213.471C337.527 213.471 337.896 213.44 338.274 213.378C338.652 213.317 338.96 213.242 339.197 213.154V214.855C338.942 214.969 338.586 215.066 338.129 215.145C337.681 215.224 337.242 215.264 336.811 215.264C336.046 215.264 335.352 215.132 334.728 214.868C334.104 214.596 333.603 214.139 333.225 213.497C332.856 212.855 332.671 211.968 332.671 210.834V202.265H330.615V201.197L332.685 200.34L333.555 197.202H334.873V200.551H339.105V202.265H334.873V210.768C334.873 211.673 335.08 212.35 335.493 212.798C335.915 213.247 336.473 213.471 337.167 213.471ZM353.884 214.974L351.313 206.562C351.199 206.202 351.089 205.851 350.983 205.508C350.887 205.156 350.794 204.822 350.707 204.506C350.627 204.181 350.553 203.882 350.482 203.609C350.421 203.328 350.368 203.086 350.324 202.884H350.232C350.197 203.086 350.148 203.328 350.087 203.609C350.025 203.882 349.951 204.181 349.863 204.506C349.784 204.831 349.696 205.174 349.599 205.534C349.502 205.886 349.393 206.242 349.27 206.602L346.58 214.974H344.115L340.133 200.524H342.401L344.484 208.5C344.625 209.028 344.756 209.551 344.879 210.069C345.011 210.579 345.121 211.062 345.209 211.52C345.306 211.968 345.376 212.359 345.42 212.693H345.525C345.578 212.473 345.635 212.209 345.697 211.902C345.767 211.594 345.842 211.269 345.921 210.926C346.009 210.575 346.101 210.228 346.198 209.885C346.294 209.533 346.391 209.204 346.488 208.896L349.151 200.524H351.511L354.082 208.883C354.213 209.305 354.341 209.744 354.464 210.201C354.596 210.658 354.714 211.102 354.82 211.533C354.925 211.955 355 212.333 355.044 212.667H355.149C355.185 212.368 355.25 211.999 355.347 211.559C355.444 211.12 355.554 210.636 355.677 210.109C355.809 209.582 355.945 209.045 356.085 208.5L358.195 200.524H360.423L356.428 214.974H353.884ZM368.465 200.313C370.188 200.313 371.466 200.7 372.301 201.474C373.136 202.247 373.554 203.482 373.554 205.178V215H371.958L371.537 212.864H371.431C371.027 213.392 370.605 213.835 370.166 214.196C369.726 214.547 369.216 214.815 368.636 215C368.065 215.176 367.362 215.264 366.527 215.264C365.648 215.264 364.866 215.11 364.18 214.802C363.503 214.495 362.967 214.029 362.572 213.405C362.185 212.781 361.992 211.99 361.992 211.032C361.992 209.59 362.563 208.483 363.706 207.709C364.848 206.936 366.588 206.514 368.926 206.444L371.418 206.338V205.455C371.418 204.207 371.15 203.333 370.614 202.832C370.078 202.331 369.322 202.08 368.346 202.08C367.59 202.08 366.87 202.19 366.184 202.41C365.499 202.629 364.848 202.889 364.233 203.188L363.561 201.526C364.211 201.192 364.958 200.907 365.802 200.669C366.646 200.432 367.533 200.313 368.465 200.313ZM371.392 207.881L369.19 207.973C367.388 208.043 366.118 208.338 365.38 208.856C364.642 209.375 364.272 210.109 364.272 211.058C364.272 211.884 364.523 212.495 365.024 212.891C365.525 213.286 366.188 213.484 367.015 213.484C368.298 213.484 369.348 213.128 370.166 212.416C370.983 211.704 371.392 210.636 371.392 209.212V207.881ZM384.628 200.287C384.918 200.287 385.221 200.305 385.538 200.34C385.854 200.366 386.135 200.406 386.381 200.458L386.104 202.489C385.867 202.427 385.604 202.379 385.313 202.344C385.023 202.309 384.751 202.291 384.496 202.291C383.916 202.291 383.367 202.41 382.848 202.647C382.338 202.875 381.89 203.209 381.503 203.649C381.117 204.08 380.813 204.603 380.594 205.218C380.374 205.824 380.264 206.501 380.264 207.248V215H378.062V200.551H379.882L380.119 203.214H380.211C380.51 202.678 380.871 202.19 381.292 201.75C381.714 201.302 382.202 200.946 382.756 200.683C383.318 200.419 383.942 200.287 384.628 200.287ZM394.674 200.287C395.904 200.287 396.959 200.56 397.838 201.104C398.717 201.649 399.389 202.414 399.855 203.398C400.321 204.374 400.554 205.517 400.554 206.826V208.184H390.574C390.6 209.88 391.022 211.172 391.839 212.06C392.657 212.948 393.808 213.392 395.293 213.392C396.208 213.392 397.016 213.308 397.719 213.141C398.422 212.974 399.152 212.728 399.908 212.403V214.328C399.178 214.653 398.453 214.89 397.732 215.04C397.021 215.189 396.177 215.264 395.201 215.264C393.812 215.264 392.6 214.982 391.562 214.42C390.534 213.849 389.734 213.014 389.163 211.915C388.592 210.816 388.306 209.472 388.306 207.881C388.306 206.325 388.565 204.98 389.084 203.847C389.611 202.704 390.35 201.825 391.299 201.21C392.257 200.595 393.382 200.287 394.674 200.287ZM394.647 202.08C393.479 202.08 392.547 202.462 391.853 203.227C391.158 203.992 390.745 205.06 390.613 206.431H398.26C398.251 205.569 398.115 204.813 397.851 204.163C397.596 203.504 397.205 202.994 396.678 202.634C396.15 202.265 395.474 202.08 394.647 202.08Z" fill="black"/>
</g>
<rect x="227.5" y="136.5" width="237" height="99" stroke="black"/>
<g clip-path="url(#clip2_18_2)">
<rect x="426" y="252" width="238" height="100" fill="white"/>
<path d="M514.559 312L512.186 305.883H504.46L502.101 312H499.833L507.374 292.646H509.391L516.879 312H514.559ZM511.514 303.892L509.259 297.814C509.207 297.656 509.119 297.397 508.996 297.037C508.881 296.676 508.763 296.303 508.64 295.916C508.517 295.529 508.416 295.217 508.336 294.98C508.249 295.34 508.152 295.701 508.046 296.061C507.95 296.413 507.853 296.742 507.756 297.05C507.66 297.349 507.576 297.604 507.506 297.814L505.212 303.892H511.514ZM526.068 297.287C527.782 297.287 529.079 297.709 529.958 298.553C530.836 299.388 531.276 300.732 531.276 302.587V312H529.114V302.732C529.114 301.528 528.837 300.627 528.283 300.029C527.738 299.432 526.899 299.133 525.765 299.133C524.166 299.133 523.041 299.585 522.39 300.491C521.74 301.396 521.415 302.71 521.415 304.433V312H519.226V297.551H520.993L521.322 299.634H521.441C521.749 299.124 522.14 298.698 522.614 298.355C523.089 298.003 523.621 297.74 524.209 297.564C524.798 297.379 525.418 297.287 526.068 297.287ZM541.19 297.313C542.913 297.313 544.191 297.7 545.026 298.474C545.861 299.247 546.279 300.482 546.279 302.178V312H544.684L544.262 309.864H544.156C543.752 310.392 543.33 310.835 542.891 311.196C542.451 311.547 541.941 311.815 541.361 312C540.79 312.176 540.087 312.264 539.252 312.264C538.373 312.264 537.591 312.11 536.905 311.802C536.229 311.495 535.692 311.029 535.297 310.405C534.91 309.781 534.717 308.99 534.717 308.032C534.717 306.59 535.288 305.483 536.431 304.709C537.573 303.936 539.313 303.514 541.651 303.444L544.143 303.338V302.455C544.143 301.207 543.875 300.333 543.339 299.832C542.803 299.331 542.047 299.08 541.071 299.08C540.315 299.08 539.595 299.19 538.909 299.41C538.224 299.629 537.573 299.889 536.958 300.188L536.286 298.526C536.936 298.192 537.683 297.907 538.527 297.669C539.371 297.432 540.258 297.313 541.19 297.313ZM544.117 304.881L541.915 304.973C540.113 305.043 538.843 305.338 538.105 305.856C537.367 306.375 536.998 307.109 536.998 308.058C536.998 308.884 537.248 309.495 537.749 309.891C538.25 310.286 538.914 310.484 539.74 310.484C541.023 310.484 542.073 310.128 542.891 309.416C543.708 308.704 544.117 307.636 544.117 306.212V304.881ZM544.802 291.315V291.579C544.626 291.833 544.385 292.141 544.077 292.501C543.778 292.853 543.444 293.227 543.075 293.622C542.706 294.009 542.333 294.378 541.955 294.729C541.585 295.081 541.243 295.384 540.926 295.639H539.463V295.323C539.744 294.989 540.052 294.589 540.386 294.123C540.72 293.648 541.045 293.165 541.361 292.673C541.678 292.172 541.941 291.719 542.152 291.315H544.802ZM552.989 312H550.788V291.486H552.989V312ZM559.805 297.551V312H557.617V297.551H559.805ZM558.737 292.146C559.098 292.146 559.405 292.264 559.66 292.501C559.924 292.73 560.056 293.09 560.056 293.583C560.056 294.066 559.924 294.426 559.66 294.664C559.405 294.901 559.098 295.02 558.737 295.02C558.359 295.02 558.043 294.901 557.788 294.664C557.542 294.426 557.419 294.066 557.419 293.583C557.419 293.09 557.542 292.73 557.788 292.501C558.043 292.264 558.359 292.146 558.737 292.146ZM573.793 308.045C573.793 308.968 573.56 309.746 573.094 310.378C572.637 311.002 571.978 311.473 571.117 311.789C570.264 312.105 569.245 312.264 568.058 312.264C567.047 312.264 566.173 312.185 565.435 312.026C564.696 311.868 564.05 311.644 563.497 311.354V309.337C564.085 309.627 564.789 309.891 565.606 310.128C566.423 310.365 567.258 310.484 568.111 310.484C569.359 310.484 570.264 310.282 570.827 309.877C571.389 309.473 571.67 308.924 571.67 308.229C571.67 307.834 571.556 307.487 571.328 307.188C571.108 306.88 570.734 306.586 570.207 306.305C569.68 306.015 568.95 305.698 568.019 305.355C567.096 305.004 566.296 304.657 565.619 304.314C564.951 303.962 564.433 303.536 564.063 303.035C563.703 302.534 563.523 301.884 563.523 301.084C563.523 299.862 564.015 298.926 565 298.276C565.993 297.617 567.293 297.287 568.902 297.287C569.772 297.287 570.585 297.375 571.341 297.551C572.105 297.718 572.817 297.946 573.477 298.236L572.738 299.99C572.141 299.735 571.503 299.52 570.827 299.344C570.15 299.168 569.46 299.08 568.757 299.08C567.746 299.08 566.968 299.247 566.423 299.581C565.887 299.915 565.619 300.372 565.619 300.952C565.619 301.4 565.742 301.77 565.988 302.06C566.243 302.35 566.647 302.622 567.201 302.877C567.755 303.132 568.484 303.431 569.39 303.773C570.295 304.107 571.077 304.455 571.736 304.815C572.396 305.167 572.901 305.597 573.252 306.107C573.613 306.608 573.793 307.254 573.793 308.045ZM582.876 297.287C584.107 297.287 585.162 297.56 586.041 298.104C586.919 298.649 587.592 299.414 588.058 300.398C588.523 301.374 588.756 302.517 588.756 303.826V305.184H578.776C578.803 306.88 579.225 308.172 580.042 309.06C580.859 309.948 582.011 310.392 583.496 310.392C584.41 310.392 585.219 310.308 585.922 310.141C586.625 309.974 587.354 309.728 588.11 309.403V311.328C587.381 311.653 586.656 311.89 585.935 312.04C585.223 312.189 584.379 312.264 583.404 312.264C582.015 312.264 580.802 311.982 579.765 311.42C578.737 310.849 577.937 310.014 577.366 308.915C576.794 307.816 576.509 306.472 576.509 304.881C576.509 303.325 576.768 301.98 577.287 300.847C577.814 299.704 578.552 298.825 579.501 298.21C580.459 297.595 581.584 297.287 582.876 297.287ZM582.85 299.08C581.681 299.08 580.75 299.462 580.055 300.227C579.361 300.992 578.948 302.06 578.816 303.431H586.462C586.454 302.569 586.317 301.813 586.054 301.163C585.799 300.504 585.408 299.994 584.88 299.634C584.353 299.265 583.676 299.08 582.85 299.08Z" fill="black"/>
</g>
<rect x="426.5" y="252.5" width="237" height="99" stroke="black"/>
<g clip-path="url(#clip3_18_2)">
<rect x="625" y="368" width="238" height="100" fill="white"/>
<path d="M686.19 428L683.817 421.883H676.091L673.731 428H671.464L679.005 408.646H681.022L688.51 428H686.19ZM683.145 419.892L680.89 413.814C680.837 413.656 680.75 413.397 680.626 413.037C680.512 412.676 680.394 412.303 680.271 411.916C680.147 411.529 680.046 411.217 679.967 410.98C679.879 411.34 679.783 411.701 679.677 412.061C679.581 412.413 679.484 412.742 679.387 413.05C679.291 413.349 679.207 413.604 679.137 413.814L676.843 419.892H683.145ZM697.422 413.287C697.712 413.287 698.016 413.305 698.332 413.34C698.648 413.366 698.93 413.406 699.176 413.458L698.899 415.489C698.662 415.427 698.398 415.379 698.108 415.344C697.818 415.309 697.545 415.291 697.291 415.291C696.71 415.291 696.161 415.41 695.643 415.647C695.133 415.875 694.685 416.209 694.298 416.649C693.911 417.08 693.608 417.603 693.388 418.218C693.168 418.824 693.059 419.501 693.059 420.248V428H690.857V413.551H692.676L692.914 416.214H693.006C693.305 415.678 693.665 415.19 694.087 414.75C694.509 414.302 694.997 413.946 695.55 413.683C696.113 413.419 696.737 413.287 697.422 413.287ZM711.595 434.46V428.264C711.595 427.921 711.604 427.525 711.621 427.077C711.639 426.629 711.669 426.242 711.713 425.917H711.568C711.164 426.585 710.588 427.143 709.841 427.591C709.094 428.04 708.132 428.264 706.954 428.264C705.188 428.264 703.768 427.64 702.696 426.392C701.624 425.144 701.087 423.28 701.087 420.802C701.087 419.176 701.333 417.805 701.826 416.688C702.318 415.572 703.012 414.729 703.909 414.157C704.814 413.577 705.869 413.287 707.073 413.287C708.224 413.287 709.165 413.516 709.894 413.973C710.624 414.421 711.195 414.97 711.608 415.621H711.713L712.043 413.551H713.783V434.46H711.595ZM707.363 426.444C708.382 426.444 709.2 426.255 709.815 425.877C710.43 425.491 710.878 424.911 711.16 424.137C711.45 423.364 711.604 422.401 711.621 421.25V420.789C711.621 418.925 711.305 417.515 710.672 416.557C710.039 415.59 708.936 415.106 707.363 415.106C706.009 415.106 705.003 415.625 704.344 416.662C703.685 417.69 703.355 419.088 703.355 420.854C703.355 422.621 703.685 423.997 704.344 424.981C705.003 425.957 706.009 426.444 707.363 426.444ZM730.368 413.551V428H728.575L728.259 425.97H728.14C727.841 426.471 727.455 426.893 726.98 427.235C726.505 427.578 725.969 427.833 725.372 428C724.783 428.176 724.154 428.264 723.486 428.264C722.344 428.264 721.386 428.079 720.612 427.71C719.839 427.341 719.254 426.77 718.859 425.996C718.472 425.223 718.279 424.229 718.279 423.017V413.551H720.494V422.858C720.494 424.062 720.766 424.963 721.311 425.561C721.856 426.15 722.687 426.444 723.803 426.444C724.875 426.444 725.728 426.242 726.36 425.838C727.002 425.434 727.463 424.84 727.745 424.058C728.026 423.267 728.167 422.3 728.167 421.158V413.551H730.368ZM737.184 413.551V428H734.996V413.551H737.184ZM736.116 408.146C736.477 408.146 736.784 408.264 737.039 408.501C737.303 408.73 737.435 409.09 737.435 409.583C737.435 410.066 737.303 410.426 737.039 410.664C736.784 410.901 736.477 411.02 736.116 411.02C735.738 411.02 735.422 410.901 735.167 410.664C734.921 410.426 734.798 410.066 734.798 409.583C734.798 409.09 734.921 408.73 735.167 408.501C735.422 408.264 735.738 408.146 736.116 408.146ZM746.492 426.471C746.852 426.471 747.221 426.44 747.599 426.378C747.977 426.317 748.285 426.242 748.522 426.154V427.855C748.267 427.969 747.911 428.066 747.454 428.145C747.006 428.224 746.566 428.264 746.136 428.264C745.371 428.264 744.677 428.132 744.053 427.868C743.429 427.596 742.928 427.139 742.55 426.497C742.181 425.855 741.996 424.968 741.996 423.834V415.265H739.939V414.197L742.009 413.34L742.879 410.202H744.198V413.551H748.43V415.265H744.198V423.768C744.198 424.673 744.404 425.35 744.817 425.798C745.239 426.247 745.797 426.471 746.492 426.471ZM757.012 413.287C758.243 413.287 759.297 413.56 760.176 414.104C761.055 414.649 761.728 415.414 762.193 416.398C762.659 417.374 762.892 418.517 762.892 419.826V421.184H752.912C752.938 422.88 753.36 424.172 754.178 425.06C754.995 425.948 756.146 426.392 757.632 426.392C758.546 426.392 759.354 426.308 760.058 426.141C760.761 425.974 761.49 425.728 762.246 425.403V427.328C761.517 427.653 760.792 427.89 760.071 428.04C759.359 428.189 758.515 428.264 757.54 428.264C756.151 428.264 754.938 427.982 753.901 427.42C752.873 426.849 752.073 426.014 751.501 424.915C750.93 423.816 750.645 422.472 750.645 420.881C750.645 419.325 750.904 417.98 751.422 416.847C751.95 415.704 752.688 414.825 753.637 414.21C754.595 413.595 755.72 413.287 757.012 413.287ZM756.986 415.08C755.817 415.08 754.885 415.462 754.191 416.227C753.497 416.992 753.083 418.06 752.952 419.431H760.598C760.589 418.569 760.453 417.813 760.189 417.163C759.935 416.504 759.543 415.994 759.016 415.634C758.489 415.265 757.812 415.08 756.986 415.08ZM771.277 426.471C771.637 426.471 772.006 426.44 772.384 426.378C772.762 426.317 773.07 426.242 773.307 426.154V427.855C773.052 427.969 772.696 428.066 772.239 428.145C771.791 428.224 771.352 428.264 770.921 428.264C770.156 428.264 769.462 428.132 768.838 427.868C768.214 427.596 767.713 427.139 767.335 426.497C766.966 425.855 766.781 424.968 766.781 423.834V415.265H764.725V414.197L766.794 413.34L767.665 410.202H768.983V413.551H773.215V415.265H768.983V423.768C768.983 424.673 769.189 425.35 769.603 425.798C770.024 426.247 770.583 426.471 771.277 426.471ZM788.165 413.551V428H786.372L786.056 425.97H785.937C785.638 426.471 785.251 426.893 784.777 427.235C784.302 427.578 783.766 427.833 783.168 428C782.58 428.176 781.951 428.264 781.283 428.264C780.141 428.264 779.183 428.079 778.409 427.71C777.636 427.341 777.051 426.77 776.656 425.996C776.269 425.223 776.076 424.229 776.076 423.017V413.551H778.291V422.858C778.291 424.062 778.563 424.963 779.108 425.561C779.653 426.15 780.483 426.444 781.6 426.444C782.672 426.444 783.524 426.242 784.157 425.838C784.799 425.434 785.26 424.84 785.542 424.058C785.823 423.267 785.963 422.3 785.963 421.158V413.551H788.165ZM799.358 413.287C799.648 413.287 799.951 413.305 800.268 413.34C800.584 413.366 800.865 413.406 801.111 413.458L800.834 415.489C800.597 415.427 800.333 415.379 800.043 415.344C799.753 415.309 799.481 415.291 799.226 415.291C798.646 415.291 798.097 415.41 797.578 415.647C797.068 415.875 796.62 416.209 796.233 416.649C795.847 417.08 795.543 417.603 795.324 418.218C795.104 418.824 794.994 419.501 794.994 420.248V428H792.792V413.551H794.612L794.849 416.214H794.941C795.24 415.678 795.601 415.19 796.022 414.75C796.444 414.302 796.932 413.946 797.486 413.683C798.048 413.419 798.672 413.287 799.358 413.287ZM809.246 413.313C810.968 413.313 812.247 413.7 813.082 414.474C813.917 415.247 814.334 416.482 814.334 418.178V428H812.739L812.317 425.864H812.212C811.808 426.392 811.386 426.835 810.946 427.196C810.507 427.547 809.997 427.815 809.417 428C808.846 428.176 808.143 428.264 807.308 428.264C806.429 428.264 805.646 428.11 804.961 427.802C804.284 427.495 803.748 427.029 803.353 426.405C802.966 425.781 802.772 424.99 802.772 424.032C802.772 422.59 803.344 421.483 804.486 420.709C805.629 419.936 807.369 419.514 809.707 419.444L812.199 419.338V418.455C812.199 417.207 811.931 416.333 811.395 415.832C810.858 415.331 810.103 415.08 809.127 415.08C808.371 415.08 807.65 415.19 806.965 415.41C806.279 415.629 805.629 415.889 805.014 416.188L804.341 414.526C804.992 414.192 805.739 413.907 806.583 413.669C807.426 413.432 808.314 413.313 809.246 413.313ZM812.172 420.881L809.971 420.973C808.169 421.043 806.899 421.338 806.161 421.856C805.422 422.375 805.053 423.109 805.053 424.058C805.053 424.884 805.304 425.495 805.805 425.891C806.306 426.286 806.969 426.484 807.795 426.484C809.079 426.484 810.129 426.128 810.946 425.416C811.764 424.704 812.172 423.636 812.172 422.212V420.881Z" fill="black"/>
</g>
<rect x="625.5" y="368.5" width="237" height="99" stroke="black"/>
<g clip-path="url(#clip4_18_2)">
<rect x="824" y="484" width="238" height="100" fill="white"/>
<path d="M866.456 524.726C868.943 524.726 870.758 525.213 871.901 526.189C873.052 527.156 873.628 528.544 873.628 530.355C873.628 531.172 873.492 531.95 873.219 532.688C872.956 533.418 872.525 534.064 871.927 534.626C871.33 535.18 870.543 535.62 869.567 535.945C868.601 536.261 867.414 536.419 866.008 536.419H863.661V544H861.42V524.726H866.456ZM866.245 526.637H863.661V534.495H865.757C866.988 534.495 868.012 534.363 868.829 534.099C869.655 533.835 870.275 533.409 870.688 532.82C871.101 532.223 871.308 531.432 871.308 530.447C871.308 529.164 870.899 528.21 870.082 527.586C869.264 526.954 867.985 526.637 866.245 526.637ZM883.898 529.287C884.188 529.287 884.491 529.305 884.808 529.34C885.124 529.366 885.405 529.406 885.651 529.458L885.375 531.489C885.137 531.427 884.874 531.379 884.583 531.344C884.293 531.309 884.021 531.291 883.766 531.291C883.186 531.291 882.637 531.41 882.118 531.647C881.608 531.875 881.16 532.209 880.773 532.649C880.387 533.08 880.083 533.603 879.864 534.218C879.644 534.824 879.534 535.501 879.534 536.248V544H877.333V529.551H879.152L879.389 532.214H879.481C879.78 531.678 880.141 531.19 880.562 530.75C880.984 530.302 881.472 529.946 882.026 529.683C882.588 529.419 883.212 529.287 883.898 529.287ZM900.839 536.749C900.839 537.936 900.685 538.995 900.377 539.926C900.07 540.858 899.626 541.645 899.046 542.286C898.466 542.928 897.763 543.42 896.937 543.763C896.119 544.097 895.192 544.264 894.155 544.264C893.188 544.264 892.3 544.097 891.492 543.763C890.692 543.42 889.998 542.928 889.409 542.286C888.829 541.645 888.376 540.858 888.051 539.926C887.734 538.995 887.576 537.936 887.576 536.749C887.576 535.167 887.844 533.822 888.38 532.715C888.917 531.599 889.681 530.75 890.674 530.17C891.676 529.582 892.867 529.287 894.247 529.287C895.565 529.287 896.717 529.582 897.701 530.17C898.694 530.759 899.463 531.612 900.008 532.728C900.562 533.835 900.839 535.176 900.839 536.749ZM889.844 536.749C889.844 537.909 889.998 538.916 890.305 539.768C890.613 540.621 891.087 541.28 891.729 541.746C892.371 542.211 893.197 542.444 894.208 542.444C895.209 542.444 896.031 542.211 896.673 541.746C897.323 541.28 897.802 540.621 898.11 539.768C898.417 538.916 898.571 537.909 898.571 536.749C898.571 535.598 898.417 534.604 898.11 533.77C897.802 532.926 897.328 532.275 896.686 531.818C896.044 531.361 895.214 531.133 894.194 531.133C892.691 531.133 891.588 531.629 890.885 532.623C890.191 533.616 889.844 534.991 889.844 536.749ZM908.657 550.486C906.758 550.486 905.295 550.13 904.267 549.418C903.238 548.715 902.724 547.727 902.724 546.452C902.724 545.547 903.01 544.773 903.581 544.132C904.161 543.49 904.961 543.064 905.98 542.853C905.603 542.677 905.277 542.414 905.005 542.062C904.741 541.71 904.609 541.306 904.609 540.849C904.609 540.322 904.754 539.86 905.044 539.465C905.343 539.061 905.796 538.674 906.402 538.305C905.646 537.997 905.031 537.479 904.557 536.749C904.091 536.011 903.858 535.154 903.858 534.178C903.858 533.141 904.073 532.258 904.504 531.528C904.935 530.79 905.559 530.228 906.376 529.841C907.193 529.454 908.182 529.261 909.342 529.261C909.597 529.261 909.852 529.274 910.107 529.3C910.371 529.318 910.621 529.349 910.858 529.393C911.096 529.428 911.302 529.472 911.478 529.524H916.435V530.935L913.772 531.265C914.036 531.607 914.255 532.021 914.431 532.504C914.607 532.987 914.695 533.523 914.695 534.112C914.695 535.554 914.207 536.701 913.231 537.553C912.256 538.397 910.916 538.819 909.21 538.819C908.806 538.819 908.393 538.784 907.971 538.713C907.541 538.951 907.211 539.214 906.982 539.504C906.763 539.794 906.653 540.128 906.653 540.506C906.653 540.788 906.736 541.012 906.903 541.179C907.079 541.346 907.33 541.469 907.655 541.548C907.98 541.618 908.371 541.653 908.828 541.653H911.373C912.946 541.653 914.15 541.983 914.985 542.642C915.829 543.301 916.25 544.264 916.25 545.529C916.25 547.129 915.6 548.355 914.299 549.208C912.999 550.06 911.118 550.486 908.657 550.486ZM908.723 548.772C909.918 548.772 910.907 548.649 911.689 548.403C912.48 548.166 913.069 547.819 913.456 547.362C913.851 546.914 914.049 546.377 914.049 545.753C914.049 545.173 913.917 544.734 913.653 544.435C913.39 544.145 913.003 543.952 912.493 543.855C911.983 543.75 911.359 543.697 910.621 543.697H908.116C907.466 543.697 906.899 543.798 906.416 544C905.932 544.202 905.559 544.501 905.295 544.896C905.04 545.292 904.913 545.784 904.913 546.373C904.913 547.155 905.242 547.749 905.901 548.153C906.561 548.566 907.501 548.772 908.723 548.772ZM909.29 537.224C910.335 537.224 911.122 536.96 911.649 536.433C912.177 535.905 912.44 535.136 912.44 534.125C912.44 533.044 912.172 532.236 911.636 531.7C911.1 531.155 910.309 530.882 909.263 530.882C908.261 530.882 907.488 531.164 906.943 531.726C906.407 532.28 906.139 533.093 906.139 534.165C906.139 535.149 906.411 535.905 906.956 536.433C907.501 536.96 908.279 537.224 909.29 537.224ZM925.848 529.287C926.138 529.287 926.441 529.305 926.758 529.34C927.074 529.366 927.355 529.406 927.602 529.458L927.325 531.489C927.087 531.427 926.824 531.379 926.534 531.344C926.244 531.309 925.971 531.291 925.716 531.291C925.136 531.291 924.587 531.41 924.068 531.647C923.559 531.875 923.11 532.209 922.724 532.649C922.337 533.08 922.034 533.603 921.814 534.218C921.594 534.824 921.484 535.501 921.484 536.248V544H919.283V529.551H921.102L921.339 532.214H921.432C921.73 531.678 922.091 531.19 922.513 530.75C922.935 530.302 923.422 529.946 923.976 529.683C924.539 529.419 925.163 529.287 925.848 529.287ZM935.736 529.313C937.458 529.313 938.737 529.7 939.572 530.474C940.407 531.247 940.825 532.482 940.825 534.178V544H939.229L938.808 541.864H938.702C938.298 542.392 937.876 542.835 937.437 543.196C936.997 543.547 936.487 543.815 935.907 544C935.336 544.176 934.633 544.264 933.798 544.264C932.919 544.264 932.137 544.11 931.451 543.802C930.774 543.495 930.238 543.029 929.843 542.405C929.456 541.781 929.263 540.99 929.263 540.032C929.263 538.59 929.834 537.483 930.977 536.709C932.119 535.936 933.859 535.514 936.197 535.444L938.689 535.338V534.455C938.689 533.207 938.421 532.333 937.885 531.832C937.349 531.331 936.593 531.08 935.617 531.08C934.861 531.08 934.141 531.19 933.455 531.41C932.77 531.629 932.119 531.889 931.504 532.188L930.832 530.526C931.482 530.192 932.229 529.907 933.073 529.669C933.917 529.432 934.804 529.313 935.736 529.313ZM938.663 536.881L936.461 536.973C934.659 537.043 933.389 537.338 932.651 537.856C931.913 538.375 931.543 539.109 931.543 540.058C931.543 540.884 931.794 541.495 932.295 541.891C932.796 542.286 933.459 542.484 934.286 542.484C935.569 542.484 936.619 542.128 937.437 541.416C938.254 540.704 938.663 539.636 938.663 538.212V536.881ZM961.022 529.287C962.613 529.287 963.812 529.705 964.621 530.54C965.43 531.366 965.834 532.697 965.834 534.534V544H963.672V534.64C963.672 533.471 963.417 532.596 962.907 532.016C962.406 531.427 961.659 531.133 960.666 531.133C959.269 531.133 958.253 531.537 957.621 532.346C956.988 533.154 956.671 534.345 956.671 535.918V544H954.496V534.64C954.496 533.857 954.382 533.207 954.153 532.688C953.934 532.17 953.6 531.783 953.151 531.528C952.712 531.265 952.154 531.133 951.477 531.133C950.519 531.133 949.75 531.331 949.17 531.726C948.59 532.122 948.168 532.71 947.904 533.493C947.649 534.266 947.522 535.22 947.522 536.354V544H945.333V529.551H947.1L947.43 531.594H947.548C947.838 531.093 948.203 530.671 948.643 530.329C949.082 529.986 949.574 529.727 950.119 529.551C950.664 529.375 951.244 529.287 951.859 529.287C952.958 529.287 953.876 529.494 954.615 529.907C955.362 530.311 955.902 530.931 956.236 531.766H956.355C956.83 530.931 957.48 530.311 958.306 529.907C959.132 529.494 960.038 529.287 961.022 529.287ZM975.735 529.313C977.458 529.313 978.736 529.7 979.571 530.474C980.406 531.247 980.824 532.482 980.824 534.178V544H979.229L978.807 541.864H978.701C978.297 542.392 977.875 542.835 977.436 543.196C976.996 543.547 976.486 543.815 975.906 544C975.335 544.176 974.632 544.264 973.797 544.264C972.918 544.264 972.136 544.11 971.45 543.802C970.773 543.495 970.237 543.029 969.842 542.405C969.455 541.781 969.262 540.99 969.262 540.032C969.262 538.59 969.833 537.483 970.976 536.709C972.118 535.936 973.858 535.514 976.196 535.444L978.688 535.338V534.455C978.688 533.207 978.42 532.333 977.884 531.832C977.348 531.331 976.592 531.08 975.616 531.08C974.86 531.08 974.14 531.19 973.454 531.41C972.769 531.629 972.118 531.889 971.503 532.188L970.831 530.526C971.481 530.192 972.228 529.907 973.072 529.669C973.916 529.432 974.803 529.313 975.735 529.313ZM978.662 536.881L976.46 536.973C974.658 537.043 973.388 537.338 972.65 537.856C971.912 538.375 971.542 539.109 971.542 540.058C971.542 540.884 971.793 541.495 972.294 541.891C972.795 542.286 973.458 542.484 974.285 542.484C975.568 542.484 976.618 542.128 977.436 541.416C978.253 540.704 978.662 539.636 978.662 538.212V536.881ZM991.12 544.264C989.819 544.264 988.672 543.996 987.679 543.459C986.686 542.923 985.913 542.106 985.359 541.007C984.805 539.909 984.528 538.524 984.528 536.854C984.528 535.105 984.818 533.677 985.398 532.57C985.987 531.454 986.796 530.627 987.824 530.091C988.853 529.555 990.021 529.287 991.331 529.287C992.052 529.287 992.746 529.362 993.414 529.511C994.091 529.652 994.645 529.832 995.075 530.052L994.416 531.884C993.977 531.708 993.467 531.55 992.887 531.41C992.315 531.269 991.779 531.199 991.278 531.199C990.276 531.199 989.441 531.414 988.773 531.845C988.114 532.275 987.618 532.908 987.284 533.743C986.958 534.578 986.796 535.606 986.796 536.828C986.796 537.997 986.954 538.995 987.271 539.821C987.596 540.647 988.075 541.28 988.708 541.719C989.349 542.15 990.149 542.365 991.107 542.365C991.872 542.365 992.562 542.286 993.177 542.128C993.792 541.961 994.35 541.768 994.851 541.548V543.499C994.368 543.745 993.827 543.934 993.229 544.066C992.641 544.198 991.938 544.264 991.12 544.264ZM993.269 547.771C993.269 548.623 992.939 549.287 992.28 549.761C991.621 550.245 990.654 550.486 989.38 550.486C989.107 550.486 988.848 550.469 988.602 550.434C988.356 550.407 988.158 550.376 988.009 550.341V548.957C988.176 548.992 988.391 549.023 988.655 549.049C988.918 549.076 989.182 549.089 989.446 549.089C990.105 549.089 990.61 548.992 990.962 548.799C991.313 548.605 991.489 548.28 991.489 547.823C991.489 547.34 991.252 546.988 990.777 546.769C990.312 546.549 989.714 546.399 988.984 546.32L990.158 544H991.621L990.909 545.477C991.349 545.564 991.744 545.701 992.096 545.885C992.456 546.07 992.742 546.316 992.953 546.624C993.164 546.931 993.269 547.313 993.269 547.771ZM1003.68 529.313C1005.41 529.313 1006.69 529.7 1007.52 530.474C1008.36 531.247 1008.77 532.482 1008.77 534.178V544H1007.18L1006.76 541.864H1006.65C1006.25 542.392 1005.82 542.835 1005.38 543.196C1004.95 543.547 1004.44 543.815 1003.86 544C1003.28 544.176 1002.58 544.264 1001.75 544.264C1000.87 544.264 1000.08 544.11 999.399 543.802C998.723 543.495 998.187 543.029 997.791 542.405C997.404 541.781 997.211 540.99 997.211 540.032C997.211 538.59 997.782 537.483 998.925 536.709C1000.07 535.936 1001.81 535.514 1004.15 535.444L1006.64 535.338V534.455C1006.64 533.207 1006.37 532.333 1005.83 531.832C1005.3 531.331 1004.54 531.08 1003.57 531.08C1002.81 531.08 1002.09 531.19 1001.4 531.41C1000.72 531.629 1000.07 531.889 999.452 532.188L998.78 530.526C999.43 530.192 1000.18 529.907 1001.02 529.669C1001.86 529.432 1002.75 529.313 1003.68 529.313ZM1006.61 536.881L1004.41 536.973C1002.61 537.043 1001.34 537.338 1000.6 537.856C999.861 538.375 999.492 539.109 999.492 540.058C999.492 540.884 999.742 541.495 1000.24 541.891C1000.74 542.286 1001.41 542.484 1002.23 542.484C1003.52 542.484 1004.57 542.128 1005.38 541.416C1006.2 540.704 1006.61 539.636 1006.61 538.212V536.881ZM998.49 527.6C998.542 527.072 998.644 526.602 998.793 526.189C998.942 525.776 999.14 525.424 999.386 525.134C999.632 524.844 999.922 524.625 1000.26 524.475C1000.6 524.317 1000.98 524.238 1001.39 524.238C1001.79 524.238 1002.18 524.321 1002.55 524.488C1002.92 524.646 1003.27 524.831 1003.6 525.042C1003.94 525.244 1004.26 525.429 1004.57 525.596C1004.88 525.754 1005.19 525.833 1005.48 525.833C1005.9 525.833 1006.22 525.706 1006.45 525.451C1006.69 525.187 1006.87 524.774 1006.99 524.211H1008.29C1008.17 525.24 1007.87 526.062 1007.38 526.677C1006.88 527.283 1006.22 527.586 1005.38 527.586C1005 527.586 1004.62 527.507 1004.26 527.349C1003.9 527.182 1003.56 526.998 1003.22 526.795C1002.89 526.584 1002.56 526.4 1002.23 526.242C1001.92 526.075 1001.61 525.991 1001.3 525.991C1000.87 525.991 1000.54 526.123 1000.31 526.387C1000.08 526.642 999.905 527.046 999.782 527.6H998.49ZM1025.74 536.749C1025.74 537.936 1025.59 538.995 1025.28 539.926C1024.97 540.858 1024.53 541.645 1023.95 542.286C1023.37 542.928 1022.66 543.42 1021.84 543.763C1021.02 544.097 1020.09 544.264 1019.06 544.264C1018.09 544.264 1017.2 544.097 1016.39 543.763C1015.59 543.42 1014.9 542.928 1014.31 542.286C1013.73 541.645 1013.28 540.858 1012.95 539.926C1012.64 538.995 1012.48 537.936 1012.48 536.749C1012.48 535.167 1012.75 533.822 1013.28 532.715C1013.82 531.599 1014.58 530.75 1015.58 530.17C1016.58 529.582 1017.77 529.287 1019.15 529.287C1020.47 529.287 1021.62 529.582 1022.6 530.17C1023.6 530.759 1024.36 531.612 1024.91 532.728C1025.46 533.835 1025.74 535.176 1025.74 536.749ZM1014.75 536.749C1014.75 537.909 1014.9 538.916 1015.21 539.768C1015.51 540.621 1015.99 541.28 1016.63 541.746C1017.27 542.211 1018.1 542.444 1019.11 542.444C1020.11 542.444 1020.93 542.211 1021.57 541.746C1022.22 541.28 1022.7 540.621 1023.01 539.768C1023.32 538.916 1023.47 537.909 1023.47 536.749C1023.47 535.598 1023.32 534.604 1023.01 533.77C1022.7 532.926 1022.23 532.275 1021.59 531.818C1020.95 531.361 1020.12 531.133 1019.1 531.133C1017.59 531.133 1016.49 531.629 1015.79 532.623C1015.09 533.616 1014.75 534.991 1014.75 536.749Z" fill="black"/>
</g>
<rect x="824.5" y="484.5" width="237" height="99" stroke="black"/>
<g clip-path="url(#clip5_18_2)">
<rect x="1023" y="600" width="238" height="100" fill="white"/>
<path d="M1116.71 660H1114.46V642.703H1108.4V640.726H1122.75V642.703H1116.71V660ZM1130.9 645.287C1132.13 645.287 1133.18 645.56 1134.06 646.104C1134.94 646.649 1135.61 647.414 1136.08 648.398C1136.55 649.374 1136.78 650.517 1136.78 651.826V653.184H1126.8C1126.83 654.88 1127.25 656.172 1128.06 657.06C1128.88 657.948 1130.03 658.392 1131.52 658.392C1132.43 658.392 1133.24 658.308 1133.94 658.141C1134.65 657.974 1135.38 657.728 1136.13 657.403V659.328C1135.4 659.653 1134.68 659.89 1133.96 660.04C1133.25 660.189 1132.4 660.264 1131.43 660.264C1130.04 660.264 1128.83 659.982 1127.79 659.42C1126.76 658.849 1125.96 658.014 1125.39 656.915C1124.82 655.816 1124.53 654.472 1124.53 652.881C1124.53 651.325 1124.79 649.98 1125.31 648.847C1125.84 647.704 1126.58 646.825 1127.52 646.21C1128.48 645.595 1129.61 645.287 1130.9 645.287ZM1130.87 647.08C1129.7 647.08 1128.77 647.462 1128.08 648.227C1127.38 648.992 1126.97 650.06 1126.84 651.431H1134.49C1134.48 650.569 1134.34 649.813 1134.08 649.163C1133.82 648.504 1133.43 647.994 1132.9 647.634C1132.38 647.265 1131.7 647.08 1130.87 647.08ZM1149.84 656.045C1149.84 656.968 1149.61 657.746 1149.15 658.378C1148.69 659.002 1148.03 659.473 1147.17 659.789C1146.32 660.105 1145.3 660.264 1144.11 660.264C1143.1 660.264 1142.22 660.185 1141.49 660.026C1140.75 659.868 1140.1 659.644 1139.55 659.354V657.337C1140.14 657.627 1140.84 657.891 1141.66 658.128C1142.47 658.365 1143.31 658.484 1144.16 658.484C1145.41 658.484 1146.32 658.282 1146.88 657.877C1147.44 657.473 1147.72 656.924 1147.72 656.229C1147.72 655.834 1147.61 655.487 1147.38 655.188C1147.16 654.88 1146.79 654.586 1146.26 654.305C1145.73 654.015 1145 653.698 1144.07 653.355C1143.15 653.004 1142.35 652.657 1141.67 652.314C1141 651.962 1140.48 651.536 1140.11 651.035C1139.75 650.534 1139.57 649.884 1139.57 649.084C1139.57 647.862 1140.07 646.926 1141.05 646.276C1142.04 645.617 1143.34 645.287 1144.95 645.287C1145.82 645.287 1146.64 645.375 1147.39 645.551C1148.16 645.718 1148.87 645.946 1149.53 646.236L1148.79 647.99C1148.19 647.735 1147.55 647.52 1146.88 647.344C1146.2 647.168 1145.51 647.08 1144.81 647.08C1143.8 647.08 1143.02 647.247 1142.47 647.581C1141.94 647.915 1141.67 648.372 1141.67 648.952C1141.67 649.4 1141.79 649.77 1142.04 650.06C1142.29 650.35 1142.7 650.622 1143.25 650.877C1143.81 651.132 1144.54 651.431 1145.44 651.773C1146.35 652.107 1147.13 652.455 1147.79 652.815C1148.45 653.167 1148.95 653.597 1149.3 654.107C1149.66 654.608 1149.84 655.254 1149.84 656.045ZM1158.03 658.471C1158.39 658.471 1158.76 658.44 1159.14 658.378C1159.52 658.317 1159.82 658.242 1160.06 658.154V659.855C1159.81 659.969 1159.45 660.066 1158.99 660.145C1158.55 660.224 1158.11 660.264 1157.68 660.264C1156.91 660.264 1156.22 660.132 1155.59 659.868C1154.97 659.596 1154.47 659.139 1154.09 658.497C1153.72 657.855 1153.54 656.968 1153.54 655.834V647.265H1151.48V646.197L1153.55 645.34L1154.42 642.202H1155.74V645.551H1159.97V647.265H1155.74V655.768C1155.74 656.673 1155.94 657.35 1156.36 657.798C1156.78 658.247 1157.34 658.471 1158.03 658.471ZM1168.55 645.287C1169.78 645.287 1170.84 645.56 1171.72 646.104C1172.59 646.649 1173.27 647.414 1173.73 648.398C1174.2 649.374 1174.43 650.517 1174.43 651.826V653.184H1164.45C1164.48 654.88 1164.9 656.172 1165.72 657.06C1166.53 657.948 1167.69 658.392 1169.17 658.392C1170.09 658.392 1170.89 658.308 1171.6 658.141C1172.3 657.974 1173.03 657.728 1173.79 657.403V659.328C1173.06 659.653 1172.33 659.89 1171.61 660.04C1170.9 660.189 1170.05 660.264 1169.08 660.264C1167.69 660.264 1166.48 659.982 1165.44 659.42C1164.41 658.849 1163.61 658.014 1163.04 656.915C1162.47 655.816 1162.18 654.472 1162.18 652.881C1162.18 651.325 1162.44 649.98 1162.96 648.847C1163.49 647.704 1164.23 646.825 1165.18 646.21C1166.13 645.595 1167.26 645.287 1168.55 645.287ZM1168.53 647.08C1167.36 647.08 1166.42 647.462 1165.73 648.227C1165.04 648.992 1164.62 650.06 1164.49 651.431H1172.14C1172.13 650.569 1171.99 649.813 1171.73 649.163C1171.47 648.504 1171.08 647.994 1170.56 647.634C1170.03 647.265 1169.35 647.08 1168.53 647.08Z" fill="black"/>
</g>
<rect x="1023.5" y="600.5" width="237" height="99" stroke="black"/>
<path fill-rule="evenodd" clip-rule="evenodd" d="M367.641 115.138C368.15 116.92 367.386 117.175 365.986 116.793L340.138 105.97C338.738 105.334 338.356 104.442 339.502 103.806L345.359 97.9485C346.123 97.1846 345.613 96.6753 345.104 96.4206C328.169 78.9767 310.98 76.0482 293.791 81.5233C292.772 81.778 292.136 81.1413 292.136 79.868L289.589 65.862C289.462 64.9707 289.971 64.4614 290.99 64.4614C315.564 60.005 336.573 66.7533 352.107 89.6722C352.871 90.1816 353.635 90.1816 354.272 89.5449L359.365 84.4518C360.256 83.8152 361.275 83.8152 361.784 85.8524L367.641 115.138Z" fill="black"/>
<path fill-rule="evenodd" clip-rule="evenodd" d="M566.641 226.138C567.15 227.92 566.386 228.175 564.986 227.793L539.138 216.97C537.738 216.334 537.356 215.442 538.502 214.806L544.359 208.949C545.123 208.185 544.613 207.675 544.104 207.421C527.169 189.977 509.98 187.048 492.791 192.523C491.772 192.778 491.136 192.141 491.136 190.868L488.589 176.862C488.462 175.971 488.971 175.461 489.99 175.461C514.564 171.005 535.573 177.753 551.107 200.672C551.871 201.182 552.635 201.182 553.272 200.545L558.365 195.452C559.256 194.815 560.275 194.815 560.784 196.852L566.641 226.138Z" fill="black"/>
<path fill-rule="evenodd" clip-rule="evenodd" d="M765.641 347.138C766.15 348.92 765.386 349.175 763.986 348.793L738.138 337.97C736.738 337.334 736.356 336.442 737.502 335.806L743.359 329.949C744.123 329.185 743.613 328.675 743.104 328.421C726.169 310.977 708.98 308.048 691.791 313.523C690.772 313.778 690.136 313.141 690.136 311.868L687.589 297.862C687.462 296.971 687.971 296.461 688.99 296.461C713.564 292.005 734.573 298.753 750.107 321.672C750.871 322.182 751.635 322.182 752.272 321.545L757.365 316.452C758.256 315.815 759.275 315.815 759.784 317.852L765.641 347.138Z" fill="black"/>
<path fill-rule="evenodd" clip-rule="evenodd" d="M964.641 463.138C965.15 464.92 964.386 465.175 962.986 464.793L937.138 453.97C935.738 453.334 935.356 452.442 936.502 451.806L942.359 445.949C943.123 445.185 942.613 444.675 942.104 444.421C925.169 426.977 907.98 424.048 890.791 429.523C889.772 429.778 889.136 429.141 889.136 427.868L886.589 413.862C886.462 412.971 886.971 412.461 887.99 412.461C912.564 408.005 933.573 414.753 949.107 437.672C949.871 438.182 950.635 438.182 951.272 437.545L956.365 432.452C957.256 431.815 958.275 431.815 958.784 433.852L964.641 463.138Z" fill="black"/>
<path fill-rule="evenodd" clip-rule="evenodd" d="M1163.64 577.138C1164.15 578.92 1163.39 579.175 1161.99 578.793L1136.14 567.97C1134.74 567.334 1134.36 566.442 1135.5 565.806L1141.36 559.949C1142.12 559.185 1141.61 558.675 1141.1 558.421C1124.17 540.977 1106.98 538.048 1089.79 543.523C1088.77 543.778 1088.14 543.141 1088.14 541.868L1085.59 527.862C1085.46 526.971 1085.97 526.461 1086.99 526.461C1111.56 522.005 1132.57 528.753 1148.11 551.672C1148.87 552.182 1149.63 552.182 1150.27 551.545L1155.36 546.452C1156.26 545.815 1157.27 545.815 1157.78 547.852L1163.64 577.138Z" fill="black"/>
<defs>
<clipPath id="clip0_18_2">
<rect x="28" y="20" width="238" height="100" fill="white"/>
</clipPath>
<clipPath id="clip1_18_2">
<rect x="227" y="136" width="238" height="100" fill="white"/>
</clipPath>
<clipPath id="clip2_18_2">
<rect x="426" y="252" width="238" height="100" fill="white"/>
</clipPath>
<clipPath id="clip3_18_2">
<rect x="625" y="368" width="238" height="100" fill="white"/>
</clipPath>
<clipPath id="clip4_18_2">
<rect x="824" y="484" width="238" height="100" fill="white"/>
</clipPath>
<clipPath id="clip5_18_2">
<rect x="1023" y="600" width="238" height="100" fill="white"/>
</clipPath>
</defs>
</svg>
