<svg width="132" height="100" viewBox="0 0 132 100" fill="none" xmlns="http://www.w3.org/2000/svg">
<path d="M97.463 0H2.537C1.138 0 0 1.033 0 2.303V82.507C0 83.778 1.138 84.812 2.537 84.812H97.463C98.861 84.812 100 83.779 100 82.507V2.303C100 1.033 98.861 0 97.463 0ZM32.199 83.966H2.537C1.604 83.966 0.846 83.311 0.846 82.507V8.887H32.199V83.966ZM64.975 83.966H33.045V8.887H64.975V83.966ZM99.154 82.507C99.154 83.311 98.396 83.966 97.463 83.966H65.82V8.887H99.154V82.507ZM99.154 8.041H0.846V2.303C0.846 1.499 1.604 0.845 2.537 0.845H97.463C98.397 0.845 99.154 1.499 99.154 2.303V8.041Z" fill="black"/>
<path d="M4.863 2.673C3.86 2.673 3.043 3.49 3.043 4.493C3.042 5.497 3.859 6.313 4.863 6.313C5.867 6.313 6.683 5.497 6.683 4.493C6.683 3.49 5.867 2.673 4.863 2.673ZM4.863 5.467C4.326 5.467 3.889 5.029 3.889 4.492C3.889 3.955 4.326 3.518 4.863 3.518C5.401 3.518 5.838 3.956 5.838 4.493C5.838 5.03 5.4 5.467 4.863 5.467Z" fill="black"/>
<path d="M9.72601 2.673C8.72201 2.673 7.90601 3.49 7.90601 4.493C7.90601 5.497 8.72201 6.313 9.72601 6.313C10.729 6.313 11.546 5.497 11.546 4.493C11.546 3.49 10.729 2.673 9.72601 2.673ZM9.72601 5.468C9.18801 5.468 8.75101 5.03 8.75101 4.493C8.75101 3.956 9.18801 3.518 9.72601 3.518C10.263 3.518 10.701 3.956 10.701 4.493C10.701 5.03 10.263 5.468 9.72601 5.468Z" fill="black"/>
<path d="M14.589 2.673C13.585 2.673 12.769 3.49 12.769 4.493C12.769 5.497 13.586 6.313 14.589 6.313C15.592 6.313 16.409 5.497 16.409 4.493C16.409 3.49 15.593 2.673 14.589 2.673ZM14.589 5.468C14.052 5.468 13.614 5.03 13.614 4.493C13.614 3.956 14.052 3.518 14.589 3.518C15.126 3.518 15.564 3.956 15.564 4.493C15.564 5.03 15.126 5.468 14.589 5.468Z" fill="black"/>
<path d="M3.86601 26.154H3.87001C4.33201 26.635 4.98001 26.937 5.70001 26.937H26.702C28.101 26.937 29.24 25.799 29.24 24.4V14.674C29.239 13.275 28.101 12.137 26.701 12.137H5.69901C4.30001 12.137 3.16101 13.275 3.16101 14.674V24.4C3.16101 25.078 3.43101 25.694 3.86601 26.15V26.154ZM6.61501 12.982H26.701C27.634 12.982 28.392 13.741 28.392 14.674V24.4C28.392 25.333 27.634 26.091 26.702 26.091H6.61501V12.982Z" fill="black"/>
<path d="M14.076 17.275H9.09601C8.86301 17.275 8.67401 17.464 8.67401 17.697C8.67401 17.931 8.86301 18.12 9.09601 18.12H14.076C14.31 18.12 14.499 17.931 14.499 17.697C14.499 17.464 14.31 17.275 14.076 17.275Z" fill="black"/>
<path d="M23.003 17.275H16.19C15.957 17.275 15.767 17.464 15.767 17.697C15.767 17.931 15.956 18.12 16.19 18.12H23.002C23.236 18.12 23.425 17.931 23.425 17.697C23.426 17.464 23.237 17.275 23.003 17.275Z" fill="black"/>
<path d="M9.09602 16.006H16.118C16.352 16.006 16.541 15.817 16.541 15.583C16.541 15.35 16.352 15.16 16.118 15.16H9.09602C8.86302 15.16 8.67402 15.349 8.67402 15.583C8.67302 15.817 8.86302 16.006 9.09602 16.006Z" fill="black"/>
<path d="M23.212 15.159H18.233C18 15.159 17.81 15.348 17.81 15.582C17.81 15.816 17.999 16.005 18.233 16.005H23.212C23.446 16.005 23.635 15.816 23.635 15.582C23.635 15.348 23.446 15.159 23.212 15.159Z" fill="black"/>
<path d="M12.666 19.388H9.09601C8.86301 19.388 8.67401 19.577 8.67401 19.811C8.67401 20.044 8.86301 20.233 9.09601 20.233H12.666C12.9 20.233 13.089 20.044 13.089 19.811C13.088 19.577 12.899 19.388 12.666 19.388Z" fill="black"/>
<path d="M36.286 26.154H36.29C36.752 26.635 37.4 26.937 38.12 26.937H59.122C60.519 26.937 61.659 25.799 61.659 24.4V14.674C61.659 13.275 60.519 12.137 59.122 12.137H38.119C36.72 12.137 35.581 13.275 35.581 14.674V24.4C35.581 25.078 35.851 25.694 36.286 26.15V26.154ZM39.035 12.982H59.121C60.055 12.982 60.812 13.741 60.812 14.674V24.4C60.812 25.333 60.052 26.091 59.121 26.091H39.035V12.982Z" fill="black"/>
<path d="M46.496 17.275H41.516C41.282 17.275 41.093 17.464 41.093 17.697C41.093 17.931 41.282 18.12 41.516 18.12H46.496C46.73 18.12 46.919 17.931 46.919 17.697C46.919 17.464 46.73 17.275 46.496 17.275Z" fill="black"/>
<path d="M55.424 17.275H48.61C48.376 17.275 48.187 17.464 48.187 17.697C48.187 17.931 48.376 18.12 48.61 18.12H55.423C55.654 18.12 55.846 17.931 55.846 17.697C55.846 17.464 55.656 17.275 55.424 17.275Z" fill="black"/>
<path d="M41.516 16.006H48.538C48.771 16.006 48.961 15.817 48.961 15.583C48.961 15.35 48.772 15.16 48.538 15.16H41.516C41.282 15.16 41.093 15.349 41.093 15.583C41.093 15.817 41.282 16.006 41.516 16.006Z" fill="black"/>
<path d="M55.631 15.159H50.652C50.419 15.159 50.229 15.348 50.229 15.582C50.229 15.816 50.419 16.005 50.652 16.005H55.631C55.865 16.005 56.055 15.816 56.055 15.582C56.055 15.349 55.866 15.159 55.631 15.159Z" fill="black"/>
<path d="M45.085 19.388H41.515C41.281 19.388 41.092 19.577 41.092 19.811C41.092 20.044 41.281 20.233 41.515 20.233H45.085C45.318 20.233 45.508 20.044 45.508 19.811C45.508 19.577 45.319 19.388 45.085 19.388Z" fill="black"/>
<path d="M36.287 44.336H36.29C36.752 44.817 37.4 45.119 38.12 45.119H59.122C60.519 45.119 61.659 43.981 61.659 42.584V32.857C61.659 31.458 60.519 30.319 59.122 30.319H38.119C36.72 30.319 35.581 31.457 35.581 32.857V42.584C35.582 43.259 35.851 43.876 36.287 44.332V44.336ZM39.035 31.165H59.121C60.055 31.165 60.812 31.924 60.812 32.857V42.584C60.812 43.515 60.052 44.273 59.121 44.273H39.035V31.165Z" fill="black"/>
<path d="M46.496 35.456H41.516C41.282 35.456 41.093 35.645 41.093 35.879C41.093 36.113 41.282 36.303 41.516 36.303H46.496C46.73 36.303 46.919 36.113 46.919 35.879C46.919 35.647 46.73 35.456 46.496 35.456Z" fill="black"/>
<path d="M55.424 35.457H48.61C48.376 35.457 48.187 35.646 48.187 35.879C48.187 36.112 48.376 36.303 48.61 36.303H55.423C55.654 36.303 55.846 36.114 55.846 35.879C55.846 35.647 55.656 35.457 55.424 35.457Z" fill="black"/>
<path d="M41.516 34.189H48.538C48.771 34.189 48.961 33.999 48.961 33.764C48.961 33.533 48.772 33.342 48.538 33.342H41.516C41.282 33.342 41.093 33.531 41.093 33.764C41.093 33.998 41.282 34.189 41.516 34.189Z" fill="black"/>
<path d="M55.631 33.342H50.652C50.419 33.342 50.229 33.531 50.229 33.764C50.229 33.998 50.419 34.189 50.652 34.189H55.631C55.865 34.189 56.055 33.999 56.055 33.764C56.055 33.532 55.866 33.342 55.631 33.342Z" fill="black"/>
<path d="M45.085 37.572H41.515C41.281 37.572 41.092 37.76 41.092 37.995C41.092 38.23 41.281 38.419 41.515 38.419H45.085C45.318 38.419 45.508 38.23 45.508 37.995C45.508 37.76 45.319 37.572 45.085 37.572Z" fill="black"/>
<path d="M69.975 26.154H69.979C70.44 26.635 71.088 26.937 71.807 26.937H92.809C94.208 26.937 95.346 25.799 95.346 24.4V14.674C95.346 13.275 94.208 12.137 92.809 12.137H71.807C70.41 12.137 69.27 13.275 69.27 14.674V24.4C69.27 25.078 69.541 25.694 69.975 26.15V26.154ZM72.723 12.982H92.809C93.744 12.982 94.501 13.741 94.501 14.674V24.4C94.501 25.333 93.742 26.091 92.809 26.091H72.723V12.982Z" fill="black"/>
<path d="M80.186 17.275H75.205C74.972 17.275 74.783 17.464 74.783 17.697C74.783 17.931 74.971 18.12 75.205 18.12H80.186C80.417 18.12 80.608 17.931 80.608 17.697C80.605 17.464 80.417 17.275 80.186 17.275Z" fill="black"/>
<path d="M89.111 17.275H82.299C82.067 17.275 81.875 17.464 81.875 17.697C81.875 17.931 82.064 18.12 82.299 18.12H89.111C89.343 18.12 89.533 17.931 89.533 17.697C89.533 17.464 89.346 17.275 89.111 17.275Z" fill="black"/>
<path d="M75.203 16.006H82.224C82.457 16.006 82.648 15.817 82.648 15.583C82.648 15.35 82.459 15.16 82.224 15.16H75.203C74.971 15.16 74.781 15.349 74.781 15.583C74.781 15.817 74.971 16.006 75.203 16.006Z" fill="black"/>
<path d="M89.32 15.159H84.34C84.108 15.159 83.918 15.348 83.918 15.582C83.918 15.816 84.106 16.005 84.34 16.005H89.32C89.552 16.005 89.743 15.816 89.743 15.582C89.743 15.348 89.555 15.159 89.32 15.159Z" fill="black"/>
<path d="M78.773 19.388H75.203C74.971 19.388 74.781 19.577 74.781 19.811C74.781 20.044 74.969 20.233 75.203 20.233H78.773C79.005 20.233 79.195 20.044 79.195 19.811C79.195 19.577 79.007 19.388 78.773 19.388Z" fill="black"/>
<path d="M69.975 44.336H69.979C70.44 44.817 71.088 45.119 71.807 45.119H92.809C94.208 45.119 95.346 43.981 95.346 42.584V32.857C95.346 31.457 94.208 30.319 92.809 30.319H71.807C70.41 30.319 69.27 31.457 69.27 32.857V42.584C69.27 43.261 69.541 43.876 69.975 44.332V44.336ZM72.936 31.165H92.809C93.744 31.165 94.501 31.924 94.501 32.857V42.584C94.501 43.515 93.742 44.273 92.809 44.273H72.936V31.165Z" fill="black"/>
<path d="M80.396 35.457H75.416C75.184 35.457 74.993 35.646 74.993 35.879C74.993 36.112 75.181 36.303 75.416 36.303H80.396C80.628 36.303 80.818 36.114 80.818 35.879C80.816 35.647 80.629 35.457 80.396 35.457Z" fill="black"/>
<path d="M89.322 35.457H82.51C82.276 35.457 82.086 35.646 82.086 35.879C82.086 36.112 82.275 36.303 82.51 36.303H89.322C89.556 36.303 89.745 36.114 89.745 35.879C89.745 35.647 89.557 35.457 89.322 35.457Z" fill="black"/>
<path d="M75.415 34.189H82.437C82.669 34.189 82.859 33.999 82.859 33.764C82.859 33.533 82.671 33.342 82.437 33.342H75.415C75.182 33.342 74.992 33.531 74.992 33.764C74.992 33.998 75.182 34.189 75.415 34.189Z" fill="black"/>
<path d="M89.532 33.342H84.552C84.319 33.342 84.129 33.531 84.129 33.764C84.129 33.997 84.318 34.189 84.552 34.189H89.532C89.765 34.189 89.954 33.999 89.954 33.764C89.954 33.532 89.766 33.342 89.532 33.342Z" fill="black"/>
<path d="M78.984 37.572H75.415C75.182 37.572 74.992 37.76 74.992 37.995C74.992 38.23 75.181 38.419 75.415 38.419H78.984C79.216 38.419 79.408 38.23 79.408 37.995C79.408 37.76 79.218 37.572 78.984 37.572Z" fill="black"/>
<path d="M69.975 62.52H69.979C70.44 63.001 71.088 63.302 71.807 63.302H92.809C94.208 63.302 95.346 62.163 95.346 60.765V51.039C95.346 49.64 94.208 48.503 92.809 48.503H71.807C70.41 48.503 69.27 49.64 69.27 51.039V60.765C69.27 61.444 69.541 62.06 69.975 62.515V62.52ZM72.723 49.347H92.809C93.744 49.347 94.501 50.107 94.501 51.038V60.765C94.501 61.698 93.742 62.455 92.809 62.455H72.723V49.347Z" fill="black"/>
<path d="M80.396 53.64H75.416C75.184 53.64 74.993 53.828 74.993 54.062C74.993 54.296 75.181 54.485 75.416 54.485H80.396C80.628 54.485 80.818 54.297 80.818 54.062C80.816 53.829 80.629 53.64 80.396 53.64Z" fill="black"/>
<path d="M89.322 53.64H82.51C82.276 53.64 82.086 53.828 82.086 54.062C82.086 54.296 82.275 54.485 82.51 54.485H89.322C89.556 54.485 89.745 54.297 89.745 54.062C89.745 53.829 89.557 53.64 89.322 53.64Z" fill="black"/>
<path d="M75.415 52.371H82.437C82.669 52.371 82.859 52.183 82.859 51.948C82.859 51.715 82.671 51.526 82.437 51.526H75.415C75.182 51.526 74.992 51.714 74.992 51.948C74.992 52.182 75.182 52.371 75.415 52.371Z" fill="black"/>
<path d="M89.532 51.526H84.552C84.319 51.526 84.129 51.714 84.129 51.948C84.129 52.182 84.318 52.371 84.552 52.371H89.532C89.765 52.371 89.954 52.183 89.954 51.948C89.954 51.715 89.766 51.526 89.532 51.526Z" fill="black"/>
<path d="M78.984 55.756H75.415C75.182 55.756 74.992 55.944 74.992 56.178C74.992 56.411 75.181 56.602 75.415 56.602H78.984C79.216 56.602 79.408 56.413 79.408 56.178C79.408 55.943 79.218 55.756 78.984 55.756Z" fill="black"/>
<path d="M116 53.4444C119.633 53.4444 122.931 53.9352 125.326 54.7288C127.849 55.5648 129.41 56.7718 129.41 58.1516C129.41 59.5313 127.849 60.7384 125.326 61.5744C122.931 62.3679 119.633 62.8587 116 62.8587C112.367 62.8587 109.069 62.3679 106.674 61.5744C104.151 60.7384 102.59 59.5313 102.59 58.1516C102.59 56.7718 104.151 55.5648 106.674 54.7288C109.069 53.9352 112.367 53.4444 116 53.4444ZM117.937 76.9587C117.938 76.8771 118.006 76.8116 118.088 76.8126C118.17 76.8135 118.236 76.8805 118.235 76.9622L118.033 92.0036C118.032 92.0853 117.965 92.1507 117.883 92.1497C117.8 92.1488 117.734 92.0818 117.735 92.0001L117.937 76.9587ZM120.005 76.7822C120.007 76.7005 120.075 76.6359 120.157 76.6378C120.239 76.6397 120.305 76.7075 120.303 76.7892L119.905 91.8396C119.903 91.9213 119.834 91.9859 119.752 91.984C119.67 91.9821 119.605 91.9143 119.606 91.8326L120.005 76.7822ZM122.072 76.5677C122.075 76.4861 122.144 76.4224 122.227 76.4256C122.309 76.4288 122.373 76.4977 122.37 76.5793L121.776 91.6388C121.773 91.7205 121.703 91.7841 121.621 91.7809C121.539 91.7777 121.474 91.7089 121.478 91.6272L122.072 76.5677ZM124.139 76.1004C124.143 76.0187 124.214 75.9559 124.296 75.9601C124.378 75.9642 124.441 76.0338 124.437 76.1155L123.647 91.184C123.643 91.2657 123.573 91.3285 123.49 91.3244C123.408 91.3202 123.345 91.2506 123.349 91.1689L124.139 76.1004ZM126.206 75.5023C126.212 75.4206 126.283 75.3586 126.365 75.3637C126.447 75.3688 126.51 75.4392 126.505 75.5209L125.518 90.5984C125.513 90.6801 125.442 90.7422 125.36 90.7371C125.277 90.7319 125.215 90.6615 125.22 90.5799L126.206 75.5023ZM128.274 74.6456C128.28 74.5639 128.352 74.5027 128.434 74.5087C128.516 74.5148 128.578 74.586 128.572 74.6677L127.389 89.7543C127.383 89.8359 127.312 89.8972 127.229 89.8912C127.147 89.8851 127.085 89.8139 127.091 89.7322L128.274 74.6456ZM115.864 76.9821C115.864 76.9005 115.931 76.8342 116.013 76.8342C116.095 76.8342 116.162 76.9005 116.162 76.9821L116.168 92.0145C116.168 92.0961 116.101 92.1624 116.019 92.1624C115.937 92.1624 115.87 92.0961 115.87 92.0145L115.864 76.9821ZM113.797 76.9622C113.796 76.8805 113.862 76.8135 113.944 76.8126C114.026 76.8116 114.094 76.8771 114.095 76.9587L114.297 92.0001C114.298 92.0818 114.232 92.1488 114.15 92.1497C114.067 92.1507 114 92.0853 113.999 92.0036L113.797 76.9622ZM111.73 76.7892C111.728 76.7075 111.793 76.6397 111.875 76.6378C111.957 76.6359 112.026 76.7005 112.028 76.7822L112.426 91.8326C112.428 91.9143 112.363 91.9821 112.28 91.984C112.198 91.9859 112.13 91.9213 112.128 91.8396L111.73 76.7892ZM109.662 76.5793C109.659 76.4977 109.723 76.4288 109.805 76.4256C109.888 76.4224 109.957 76.4861 109.96 76.5677L110.555 91.6272C110.558 91.7089 110.494 91.7777 110.411 91.7809C110.329 91.7841 110.26 91.7205 110.257 91.6388L109.662 76.5793ZM107.595 76.1155C107.591 76.0338 107.654 75.9642 107.736 75.9601C107.819 75.9559 107.889 76.0187 107.893 76.1004L108.683 91.1689C108.688 91.2506 108.624 91.3202 108.542 91.3244C108.46 91.3285 108.389 91.2657 108.385 91.184L107.595 76.1155ZM105.528 75.5209C105.523 75.4392 105.585 75.3688 105.667 75.3637C105.75 75.3586 105.821 75.4206 105.826 75.5023L106.812 90.5799C106.817 90.6615 106.755 90.7319 106.672 90.7371C106.59 90.7422 106.519 90.6801 106.514 90.5984L105.528 75.5209ZM103.461 74.6677C103.454 74.586 103.516 74.5148 103.598 74.5087C103.681 74.5027 103.752 74.5639 103.759 74.6456L104.941 89.7322C104.947 89.8139 104.885 89.8851 104.803 89.8912C104.721 89.8972 104.649 89.8359 104.643 89.7543L103.461 74.6677ZM127.884 91.6617C126.842 92.302 125.335 92.9244 123.536 93.4099C121.377 93.9925 118.781 94.387 116.048 94.387C112.551 94.387 109.218 93.9003 106.772 93.1207C105.763 92.7991 104.899 92.4214 104.224 91.9999L104.385 93.6061L104.395 93.6052L104.555 95.3062L104.563 95.3853L104.563 95.3853L104.564 95.3982C104.658 96.3955 105.919 97.3217 107.901 98.0204C109.991 98.7572 112.847 99.2081 116 99.2081C118.948 99.2081 121.734 98.7274 123.846 98.0254C126.001 97.3091 127.418 96.4079 127.496 95.6137L127.636 94.2026L127.638 94.2028L127.884 91.6617ZM102.677 90.2511C102.644 90.1218 102.626 89.9908 102.624 89.8581L101.132 72.1221C101.092 71.6445 101.079 71.349 101.127 71.0941C101.172 70.8567 101.259 70.6848 101.409 70.494C101.401 70.4384 101.395 70.3826 101.392 70.3264L101.394 70.3263L100.804 64.0896C100.282 63.4777 100 62.8191 100 62.1293V58.4095H100C100 58.4006 100 58.3916 100 58.3827C100 56.5495 101.844 54.9253 104.825 53.7813C107.693 52.6807 111.645 52 116 52C120.355 52 124.307 52.6807 127.175 53.7813C130.156 54.9253 132 56.5495 132 58.3827C132 58.3916 132 58.4006 132 58.4095H132V62.1293C132 62.7744 131.753 63.3923 131.294 63.9701L130.662 70.6542C130.851 70.8054 130.985 70.9863 131.071 71.2061C131.177 71.4764 131.2 71.7883 131.156 72.1633L129.696 88.5226L129.696 88.5226C129.643 89.1435 129.547 89.6475 129.384 90.0728C129.232 90.4685 129.023 90.7927 128.74 91.0729L128.315 95.4611L128.311 95.4606L128.288 95.6879C128.177 96.8103 126.552 97.9585 124.098 98.7741C121.909 99.5017 119.032 100 116 100C112.758 100 109.808 99.5315 107.636 98.766C105.357 97.9625 103.898 96.8037 103.772 95.4694L103.772 95.4626L103.771 95.4626L103.372 91.4704C103.229 91.3326 103.081 91.1722 102.95 90.9558C102.833 90.7628 102.736 90.5337 102.677 90.2511ZM103.462 90.1126C103.705 90.9459 105.041 91.7396 107.016 92.369C109.384 93.1238 112.628 93.5951 116.048 93.5951C118.706 93.5951 121.23 93.2118 123.327 92.6458C125.719 92.0005 127.535 91.1303 128.34 90.3324C128.462 90.1751 128.56 89.9971 128.639 89.7913C128.774 89.44 128.854 89.0048 128.901 88.4561V88.4545L130.361 72.0952L130.362 72.0829C130.393 71.828 130.385 71.6337 130.329 71.4907C130.322 71.4728 130.314 71.4555 130.305 71.4386C129.644 72.4892 128.187 73.3875 126.164 74.0588C123.577 74.9173 120.031 75.4316 116.051 75.4316C112.086 75.4316 108.524 74.9019 105.923 74.0391C104.013 73.4051 102.603 72.5754 101.897 71.6217C101.902 71.7416 101.913 71.8847 101.927 72.0571L103.42 89.8074V89.8136C103.428 89.9235 103.442 90.0227 103.462 90.1126ZM102.199 70.3986C102.361 71.4974 103.844 72.5165 106.176 73.2904C108.695 74.1264 112.167 74.6397 116.051 74.6397C119.949 74.6397 123.406 74.1416 125.912 73.3101C128.3 72.5178 129.79 71.4533 129.9 70.2733H129.9L130.414 64.8354C129.599 65.4841 128.497 66.0638 127.169 66.5515C124.304 67.6035 120.355 68.2542 116 68.2542C111.645 68.2542 107.696 67.6035 104.831 66.5515C103.553 66.0822 102.485 65.5278 101.68 64.9087L102.199 70.3986ZM124.163 56.9297H126.366C126.537 56.9297 126.692 56.9622 126.827 57.0216C127.003 57.0986 127.142 57.2197 127.239 57.3745C127.332 57.5242 127.381 57.6986 127.381 57.8879C127.381 58.0565 127.342 58.2384 127.259 58.4246C127.114 58.7504 126.852 59.0437 126.547 59.2538C126.235 59.468 125.871 59.6009 125.529 59.6009H123.325C123.154 59.6009 123 59.5685 122.864 59.5091C122.689 59.4321 122.55 59.3109 122.453 59.1561C122.36 59.0065 122.31 58.832 122.31 58.6428C122.31 58.4742 122.349 58.2923 122.432 58.106C122.578 57.7803 122.84 57.487 123.145 57.2769C123.456 57.0627 123.821 56.9297 124.163 56.9297ZM126.366 57.7217H124.163C123.984 57.7217 123.781 57.8002 123.597 57.9265C123.407 58.0571 123.247 58.2336 123.162 58.4246C123.125 58.5065 123.108 58.5801 123.108 58.6428C123.108 58.6857 123.116 58.7192 123.13 58.7416C123.14 58.7587 123.159 58.7737 123.185 58.7852C123.22 58.8006 123.267 58.809 123.325 58.809H125.529C125.708 58.809 125.911 58.7305 126.095 58.6041C126.284 58.4736 126.445 58.297 126.53 58.106C126.566 58.0242 126.583 57.9506 126.583 57.8879C126.583 57.8449 126.576 57.8115 126.562 57.7891C126.551 57.7719 126.533 57.757 126.506 57.7455C126.471 57.7301 126.425 57.7217 126.366 57.7217ZM100.798 60.4142V62.1293C100.798 63.5279 102.444 64.8317 105.106 65.809C107.887 66.8305 111.738 67.4623 116 67.4623C120.262 67.4623 124.113 66.8305 126.894 65.809C129.556 64.8317 131.202 63.5279 131.202 62.1293V60.4142C130.39 61.4087 128.995 62.2858 127.175 62.9841C124.307 64.0847 120.355 64.7654 116 64.7654C111.645 64.7654 107.693 64.0847 104.825 62.9841C103.005 62.2858 101.609 61.4087 100.798 60.4142ZM126.888 54.5176C124.11 53.4514 120.261 52.7919 116 52.7919C111.739 52.7919 107.89 53.4514 105.112 54.5176C102.447 55.5404 100.798 56.9096 100.798 58.3827C100.798 59.8559 102.447 61.2251 105.112 62.2478C107.89 63.314 111.739 63.9735 116 63.9735C120.261 63.9735 124.11 63.314 126.888 62.2478C129.553 61.2251 131.202 59.8559 131.202 58.3827C131.202 56.9096 129.553 55.5404 126.888 54.5176ZM125.074 55.4774C122.76 54.7106 119.552 54.2363 116 54.2363C112.448 54.2363 109.24 54.7106 106.926 55.4774C104.74 56.2017 103.388 57.1504 103.388 58.1516C103.388 59.1528 104.74 60.1014 106.926 60.8257C109.24 61.5925 112.448 62.0668 116 62.0668C119.552 62.0668 122.76 61.5925 125.074 60.8257C127.26 60.1014 128.612 59.1528 128.612 58.1516C128.612 57.1504 127.26 56.2017 125.074 55.4774Z" fill="black"/>
</svg>
