<svg width="1102" height="607" viewBox="0 0 1102 607" fill="none" xmlns="http://www.w3.org/2000/svg">
<rect width="1102" height="607" fill="white"/>
<path d="M348.641 104.872C348.641 106.014 348.355 106.99 347.784 107.798C347.221 108.598 346.43 109.209 345.411 109.631C344.391 110.053 343.191 110.264 341.812 110.264C341.082 110.264 340.392 110.229 339.742 110.158C339.091 110.088 338.494 109.987 337.949 109.855C337.404 109.723 336.925 109.561 336.512 109.367V107.218C337.171 107.491 337.975 107.746 338.924 107.983C339.874 108.211 340.867 108.326 341.904 108.326C342.871 108.326 343.688 108.198 344.356 107.943C345.024 107.68 345.529 107.306 345.872 106.823C346.224 106.331 346.399 105.742 346.399 105.056C346.399 104.397 346.254 103.848 345.964 103.408C345.674 102.96 345.191 102.556 344.514 102.195C343.846 101.826 342.932 101.435 341.772 101.022C340.955 100.732 340.234 100.416 339.61 100.073C338.986 99.7212 338.463 99.3257 338.041 98.8862C337.619 98.4468 337.298 97.937 337.079 97.3569C336.868 96.7769 336.762 96.1133 336.762 95.3662C336.762 94.3379 337.021 93.459 337.54 92.7295C338.067 91.9912 338.792 91.4287 339.715 91.042C340.647 90.6465 341.715 90.4487 342.919 90.4487C343.947 90.4487 344.896 90.5454 345.767 90.7388C346.646 90.9321 347.45 91.1914 348.179 91.5166L347.48 93.4414C346.786 93.1514 346.048 92.9097 345.266 92.7163C344.492 92.5229 343.692 92.4263 342.866 92.4263C342.04 92.4263 341.341 92.5493 340.77 92.7954C340.208 93.0327 339.777 93.3711 339.478 93.8105C339.179 94.25 339.03 94.7729 339.03 95.3794C339.03 96.0562 339.17 96.6187 339.452 97.0669C339.742 97.5151 340.199 97.915 340.823 98.2666C341.456 98.6094 342.291 98.9697 343.328 99.3477C344.461 99.7607 345.424 100.2 346.215 100.666C347.006 101.123 347.608 101.686 348.021 102.354C348.434 103.013 348.641 103.852 348.641 104.872ZM359.042 95.2871C360.844 95.2871 362.281 95.9067 363.354 97.146C364.426 98.3853 364.962 100.249 364.962 102.736C364.962 104.379 364.716 105.759 364.224 106.875C363.731 107.992 363.037 108.835 362.141 109.407C361.253 109.978 360.203 110.264 358.99 110.264C358.225 110.264 357.553 110.163 356.973 109.96C356.393 109.758 355.896 109.486 355.483 109.143C355.07 108.8 354.727 108.427 354.455 108.022H354.296C354.323 108.365 354.354 108.778 354.389 109.262C354.433 109.745 354.455 110.167 354.455 110.527V116.46H352.253V95.5508H354.059L354.349 97.6865H354.455C354.736 97.2471 355.079 96.8472 355.483 96.4868C355.887 96.1177 356.379 95.8276 356.959 95.6167C357.548 95.397 358.243 95.2871 359.042 95.2871ZM358.66 97.1328C357.658 97.1328 356.85 97.3262 356.234 97.7129C355.628 98.0996 355.184 98.6797 354.903 99.4531C354.622 100.218 354.472 101.18 354.455 102.34V102.762C354.455 103.984 354.586 105.017 354.85 105.86C355.123 106.704 355.566 107.346 356.182 107.785C356.806 108.225 357.641 108.444 358.687 108.444C359.583 108.444 360.33 108.203 360.928 107.719C361.525 107.236 361.969 106.563 362.259 105.702C362.558 104.832 362.708 103.834 362.708 102.709C362.708 101.004 362.374 99.6509 361.706 98.6489C361.046 97.6382 360.031 97.1328 358.66 97.1328ZM375.351 95.2871C375.641 95.2871 375.944 95.3047 376.26 95.3398C376.577 95.3662 376.858 95.4058 377.104 95.4585L376.827 97.4888C376.59 97.4272 376.326 97.3789 376.036 97.3438C375.746 97.3086 375.474 97.291 375.219 97.291C374.639 97.291 374.089 97.4097 373.571 97.647C373.061 97.8755 372.613 98.2095 372.226 98.6489C371.839 99.0796 371.536 99.6025 371.316 100.218C371.097 100.824 370.987 101.501 370.987 102.248V110H368.785V95.5508H370.604L370.842 98.2139H370.934C371.233 97.6777 371.593 97.1899 372.015 96.7505C372.437 96.3022 372.925 95.9463 373.479 95.6826C374.041 95.4189 374.665 95.2871 375.351 95.2871ZM382.021 95.5508V110H379.833V95.5508H382.021ZM380.954 90.1455C381.314 90.1455 381.622 90.2642 381.876 90.5015C382.14 90.73 382.272 91.0903 382.272 91.5825C382.272 92.0659 382.14 92.4263 381.876 92.6636C381.622 92.9009 381.314 93.0195 380.954 93.0195C380.576 93.0195 380.259 92.9009 380.004 92.6636C379.758 92.4263 379.635 92.0659 379.635 91.5825C379.635 91.0903 379.758 90.73 380.004 90.5015C380.259 90.2642 380.576 90.1455 380.954 90.1455ZM393.504 95.2871C395.218 95.2871 396.515 95.709 397.394 96.5527C398.272 97.3877 398.712 98.7324 398.712 100.587V110H396.55V100.732C396.55 99.5278 396.273 98.627 395.719 98.0293C395.174 97.4316 394.335 97.1328 393.201 97.1328C391.602 97.1328 390.477 97.5854 389.826 98.4907C389.176 99.396 388.851 100.71 388.851 102.433V110H386.662V95.5508H388.429L388.758 97.6338H388.877C389.185 97.124 389.576 96.6978 390.05 96.355C390.525 96.0034 391.057 95.7397 391.646 95.564C392.234 95.3794 392.854 95.2871 393.504 95.2871ZM407.888 108.471C408.248 108.471 408.617 108.44 408.995 108.378C409.373 108.317 409.681 108.242 409.918 108.154V109.855C409.663 109.969 409.307 110.066 408.85 110.145C408.402 110.224 407.962 110.264 407.532 110.264C406.767 110.264 406.073 110.132 405.449 109.868C404.825 109.596 404.324 109.139 403.946 108.497C403.577 107.855 403.392 106.968 403.392 105.834V97.2646H401.335V96.1968L403.405 95.3398L404.275 92.2021H405.594V95.5508H409.826V97.2646H405.594V105.768C405.594 106.673 405.8 107.35 406.213 107.798C406.635 108.247 407.193 108.471 407.888 108.471ZM420.188 90.7256H425.646C428.054 90.7256 429.865 91.0859 431.078 91.8066C432.291 92.5273 432.897 93.7534 432.897 95.4849C432.897 96.2319 432.752 96.9043 432.462 97.502C432.181 98.0908 431.768 98.5786 431.223 98.9653C430.678 99.3521 430.005 99.6201 429.206 99.7695V99.9014C430.049 100.033 430.796 100.275 431.447 100.626C432.097 100.978 432.607 101.47 432.976 102.103C433.345 102.736 433.53 103.54 433.53 104.516C433.53 105.702 433.253 106.704 432.699 107.521C432.154 108.339 431.381 108.958 430.379 109.38C429.377 109.793 428.19 110 426.819 110H420.188V90.7256ZM422.429 98.9917H426.121C427.799 98.9917 428.959 98.7148 429.601 98.1611C430.251 97.6074 430.577 96.7988 430.577 95.7354C430.577 94.6367 430.19 93.8457 429.417 93.3623C428.652 92.8789 427.43 92.6372 425.751 92.6372H422.429V98.9917ZM422.429 100.877V108.088H426.437C428.151 108.088 429.364 107.754 430.076 107.086C430.788 106.41 431.144 105.5 431.144 104.357C431.144 103.628 430.981 103.004 430.656 102.485C430.339 101.967 429.821 101.571 429.1 101.299C428.388 101.018 427.435 100.877 426.239 100.877H422.429ZM442.719 95.3135C444.441 95.3135 445.72 95.7002 446.555 96.4736C447.39 97.2471 447.808 98.4819 447.808 100.178V110H446.212L445.791 107.864H445.685C445.281 108.392 444.859 108.835 444.419 109.196C443.98 109.547 443.47 109.815 442.89 110C442.319 110.176 441.616 110.264 440.781 110.264C439.902 110.264 439.12 110.11 438.434 109.802C437.757 109.495 437.221 109.029 436.826 108.405C436.439 107.781 436.246 106.99 436.246 106.032C436.246 104.59 436.817 103.483 437.959 102.709C439.102 101.936 440.842 101.514 443.18 101.444L445.672 101.338V100.455C445.672 99.207 445.404 98.3325 444.868 97.8315C444.332 97.3306 443.576 97.0801 442.6 97.0801C441.844 97.0801 441.124 97.1899 440.438 97.4097C439.752 97.6294 439.102 97.8887 438.487 98.1875L437.814 96.5264C438.465 96.1924 439.212 95.9067 440.056 95.6694C440.899 95.4321 441.787 95.3135 442.719 95.3135ZM445.646 102.881L443.444 102.973C441.642 103.043 440.372 103.338 439.634 103.856C438.896 104.375 438.526 105.109 438.526 106.058C438.526 106.884 438.777 107.495 439.278 107.891C439.779 108.286 440.442 108.484 441.269 108.484C442.552 108.484 443.602 108.128 444.419 107.416C445.237 106.704 445.646 105.636 445.646 104.212V102.881ZM458.104 110.264C456.803 110.264 455.656 109.996 454.663 109.459C453.67 108.923 452.896 108.106 452.343 107.007C451.789 105.909 451.512 104.524 451.512 102.854C451.512 101.105 451.802 99.6772 452.382 98.5698C452.971 97.4536 453.78 96.6274 454.808 96.0913C455.836 95.5552 457.005 95.2871 458.315 95.2871C459.036 95.2871 459.73 95.3618 460.398 95.5112C461.075 95.6519 461.628 95.832 462.059 96.0518L461.4 97.8843C460.96 97.7085 460.451 97.5503 459.871 97.4097C459.299 97.269 458.763 97.1987 458.262 97.1987C457.26 97.1987 456.425 97.4141 455.757 97.8447C455.098 98.2754 454.602 98.9082 454.268 99.7432C453.942 100.578 453.78 101.606 453.78 102.828C453.78 103.997 453.938 104.995 454.254 105.821C454.58 106.647 455.059 107.28 455.691 107.719C456.333 108.15 457.133 108.365 458.091 108.365C458.855 108.365 459.545 108.286 460.161 108.128C460.776 107.961 461.334 107.768 461.835 107.548V109.499C461.352 109.745 460.811 109.934 460.213 110.066C459.625 110.198 458.921 110.264 458.104 110.264ZM467.438 89.4863V100.139C467.438 100.49 467.425 100.921 467.398 101.431C467.372 101.932 467.35 102.375 467.333 102.762H467.425C467.609 102.534 467.877 102.195 468.229 101.747C468.589 101.299 468.893 100.938 469.139 100.666L473.938 95.5508H476.508L470.694 101.721L476.93 110H474.293L469.191 103.158L467.438 104.766V110H465.263V89.4863H467.438ZM481.65 110H479.448V89.4863H481.65V110ZM498.736 102.749C498.736 103.936 498.582 104.995 498.274 105.926C497.967 106.858 497.523 107.645 496.943 108.286C496.363 108.928 495.66 109.42 494.833 109.763C494.016 110.097 493.089 110.264 492.052 110.264C491.085 110.264 490.197 110.097 489.389 109.763C488.589 109.42 487.895 108.928 487.306 108.286C486.726 107.645 486.273 106.858 485.948 105.926C485.631 104.995 485.473 103.936 485.473 102.749C485.473 101.167 485.741 99.8223 486.277 98.7148C486.813 97.5986 487.578 96.7505 488.571 96.1704C489.573 95.5815 490.764 95.2871 492.144 95.2871C493.462 95.2871 494.614 95.5815 495.598 96.1704C496.591 96.7593 497.36 97.6118 497.905 98.728C498.459 99.8354 498.736 101.176 498.736 102.749ZM487.741 102.749C487.741 103.909 487.895 104.916 488.202 105.768C488.51 106.621 488.984 107.28 489.626 107.746C490.268 108.211 491.094 108.444 492.104 108.444C493.106 108.444 493.928 108.211 494.57 107.746C495.22 107.28 495.699 106.621 496.007 105.768C496.314 104.916 496.468 103.909 496.468 102.749C496.468 101.598 496.314 100.604 496.007 99.7695C495.699 98.9258 495.225 98.2754 494.583 97.8184C493.941 97.3613 493.111 97.1328 492.091 97.1328C490.588 97.1328 489.485 97.6294 488.782 98.6226C488.088 99.6157 487.741 100.991 487.741 102.749ZM506.554 116.486C504.655 116.486 503.192 116.13 502.164 115.418C501.135 114.715 500.621 113.727 500.621 112.452C500.621 111.547 500.907 110.773 501.478 110.132C502.058 109.49 502.858 109.064 503.877 108.853C503.5 108.677 503.174 108.414 502.902 108.062C502.638 107.71 502.506 107.306 502.506 106.849C502.506 106.322 502.651 105.86 502.941 105.465C503.24 105.061 503.693 104.674 504.299 104.305C503.543 103.997 502.928 103.479 502.454 102.749C501.988 102.011 501.755 101.154 501.755 100.178C501.755 99.1411 501.97 98.2578 502.401 97.5283C502.832 96.79 503.456 96.2275 504.273 95.8408C505.09 95.4541 506.079 95.2607 507.239 95.2607C507.494 95.2607 507.749 95.2739 508.004 95.3003C508.268 95.3179 508.518 95.3486 508.755 95.3926C508.993 95.4277 509.199 95.4717 509.375 95.5244H514.332V96.9351L511.669 97.2646C511.933 97.6074 512.152 98.0205 512.328 98.5039C512.504 98.9873 512.592 99.5234 512.592 100.112C512.592 101.554 512.104 102.701 511.128 103.553C510.153 104.397 508.812 104.819 507.107 104.819C506.703 104.819 506.29 104.784 505.868 104.713C505.438 104.951 505.108 105.214 504.879 105.504C504.66 105.794 504.55 106.128 504.55 106.506C504.55 106.788 504.633 107.012 504.8 107.179C504.976 107.346 505.227 107.469 505.552 107.548C505.877 107.618 506.268 107.653 506.725 107.653H509.27C510.843 107.653 512.047 107.983 512.882 108.642C513.726 109.301 514.147 110.264 514.147 111.529C514.147 113.129 513.497 114.355 512.196 115.208C510.896 116.06 509.015 116.486 506.554 116.486ZM506.62 114.772C507.815 114.772 508.804 114.649 509.586 114.403C510.377 114.166 510.966 113.819 511.353 113.362C511.748 112.914 511.946 112.377 511.946 111.753C511.946 111.173 511.814 110.734 511.55 110.435C511.287 110.145 510.9 109.952 510.39 109.855C509.88 109.75 509.256 109.697 508.518 109.697H506.013C505.363 109.697 504.796 109.798 504.312 110C503.829 110.202 503.456 110.501 503.192 110.896C502.937 111.292 502.81 111.784 502.81 112.373C502.81 113.155 503.139 113.749 503.798 114.153C504.458 114.566 505.398 114.772 506.62 114.772ZM507.187 103.224C508.232 103.224 509.019 102.96 509.546 102.433C510.074 101.905 510.337 101.136 510.337 100.125C510.337 99.0444 510.069 98.2358 509.533 97.6997C508.997 97.1548 508.206 96.8823 507.16 96.8823C506.158 96.8823 505.385 97.1636 504.84 97.7261C504.304 98.2798 504.036 99.0928 504.036 100.165C504.036 101.149 504.308 101.905 504.853 102.433C505.398 102.96 506.176 103.224 507.187 103.224Z" fill="black"/>
<path d="M80.9087 90.7256C83.396 90.7256 85.2109 91.2134 86.3535 92.189C87.5049 93.1558 88.0806 94.5444 88.0806 96.355C88.0806 97.1724 87.9443 97.9502 87.6719 98.6885C87.4082 99.418 86.9775 100.064 86.3799 100.626C85.7822 101.18 84.9956 101.62 84.02 101.945C83.0532 102.261 81.8667 102.419 80.4604 102.419H78.1138V110H75.8726V90.7256H80.9087ZM80.6978 92.6372H78.1138V100.495H80.21C81.4404 100.495 82.4644 100.363 83.2817 100.099C84.1079 99.8354 84.7275 99.4092 85.1406 98.8203C85.5537 98.2227 85.7603 97.4316 85.7603 96.4473C85.7603 95.1641 85.3516 94.2104 84.5342 93.5864C83.7168 92.9536 82.438 92.6372 80.6978 92.6372ZM98.3506 95.2871C98.6406 95.2871 98.9438 95.3047 99.2603 95.3398C99.5767 95.3662 99.8579 95.4058 100.104 95.4585L99.8271 97.4888C99.5898 97.4272 99.3262 97.3789 99.0361 97.3438C98.7461 97.3086 98.4736 97.291 98.2188 97.291C97.6387 97.291 97.0894 97.4097 96.5708 97.647C96.061 97.8755 95.6128 98.2095 95.2261 98.6489C94.8394 99.0796 94.5361 99.6025 94.3164 100.218C94.0967 100.824 93.9868 101.501 93.9868 102.248V110H91.7852V95.5508H93.6045L93.8418 98.2139H93.9341C94.2329 97.6777 94.5933 97.1899 95.0151 96.7505C95.437 96.3022 95.9248 95.9463 96.4785 95.6826C97.041 95.4189 97.665 95.2871 98.3506 95.2871ZM115.292 102.749C115.292 103.936 115.138 104.995 114.83 105.926C114.522 106.858 114.079 107.645 113.499 108.286C112.918 108.928 112.215 109.42 111.389 109.763C110.572 110.097 109.645 110.264 108.607 110.264C107.641 110.264 106.753 110.097 105.944 109.763C105.145 109.42 104.45 108.928 103.861 108.286C103.281 107.645 102.829 106.858 102.503 105.926C102.187 104.995 102.029 103.936 102.029 102.749C102.029 101.167 102.297 99.8223 102.833 98.7148C103.369 97.5986 104.134 96.7505 105.127 96.1704C106.129 95.5815 107.32 95.2871 108.7 95.2871C110.018 95.2871 111.169 95.5815 112.154 96.1704C113.147 96.7593 113.916 97.6118 114.461 98.728C115.015 99.8354 115.292 101.176 115.292 102.749ZM104.296 102.749C104.296 103.909 104.45 104.916 104.758 105.768C105.065 106.621 105.54 107.28 106.182 107.746C106.823 108.211 107.649 108.444 108.66 108.444C109.662 108.444 110.484 108.211 111.125 107.746C111.776 107.28 112.255 106.621 112.562 105.768C112.87 104.916 113.024 103.909 113.024 102.749C113.024 101.598 112.87 100.604 112.562 99.7695C112.255 98.9258 111.78 98.2754 111.139 97.8184C110.497 97.3613 109.667 97.1328 108.647 97.1328C107.144 97.1328 106.041 97.6294 105.338 98.6226C104.644 99.6157 104.296 100.991 104.296 102.749ZM124.217 110.264C122.389 110.264 120.938 109.64 119.866 108.392C118.803 107.144 118.271 105.289 118.271 102.828C118.271 100.341 118.816 98.4644 119.906 97.1987C120.996 95.9243 122.446 95.2871 124.256 95.2871C125.021 95.2871 125.689 95.3882 126.26 95.5903C126.832 95.7925 127.324 96.0649 127.737 96.4077C128.15 96.7417 128.497 97.124 128.778 97.5547H128.937C128.901 97.2822 128.866 96.9087 128.831 96.4341C128.796 95.9595 128.778 95.5728 128.778 95.2739V89.4863H130.967V110H129.2L128.871 107.943H128.778C128.506 108.374 128.159 108.765 127.737 109.117C127.324 109.468 126.827 109.75 126.247 109.96C125.676 110.163 124.999 110.264 124.217 110.264ZM124.56 108.444C126.106 108.444 127.201 108.005 127.842 107.126C128.484 106.247 128.805 104.942 128.805 103.21V102.815C128.805 100.978 128.497 99.5674 127.882 98.583C127.275 97.5986 126.168 97.1064 124.56 97.1064C123.215 97.1064 122.208 97.625 121.541 98.6621C120.873 99.6904 120.539 101.097 120.539 102.881C120.539 104.656 120.868 106.027 121.527 106.994C122.195 107.961 123.206 108.444 124.56 108.444ZM147.539 95.5508V110H145.746L145.429 107.97H145.311C145.012 108.471 144.625 108.893 144.15 109.235C143.676 109.578 143.14 109.833 142.542 110C141.953 110.176 141.325 110.264 140.657 110.264C139.514 110.264 138.556 110.079 137.783 109.71C137.009 109.341 136.425 108.77 136.029 107.996C135.643 107.223 135.449 106.229 135.449 105.017V95.5508H137.664V104.858C137.664 106.062 137.937 106.963 138.481 107.561C139.026 108.15 139.857 108.444 140.973 108.444C142.045 108.444 142.898 108.242 143.531 107.838C144.172 107.434 144.634 106.84 144.915 106.058C145.196 105.267 145.337 104.3 145.337 103.158V95.5508H147.539ZM157.954 110.264C156.653 110.264 155.506 109.996 154.513 109.459C153.52 108.923 152.746 108.106 152.192 107.007C151.639 105.909 151.362 104.524 151.362 102.854C151.362 101.105 151.652 99.6772 152.232 98.5698C152.821 97.4536 153.629 96.6274 154.658 96.0913C155.686 95.5552 156.855 95.2871 158.165 95.2871C158.885 95.2871 159.58 95.3618 160.248 95.5112C160.924 95.6519 161.478 95.832 161.909 96.0518L161.25 97.8843C160.81 97.7085 160.3 97.5503 159.72 97.4097C159.149 97.269 158.613 97.1987 158.112 97.1987C157.11 97.1987 156.275 97.4141 155.607 97.8447C154.948 98.2754 154.451 98.9082 154.117 99.7432C153.792 100.578 153.629 101.606 153.629 102.828C153.629 103.997 153.788 104.995 154.104 105.821C154.429 106.647 154.908 107.28 155.541 107.719C156.183 108.15 156.982 108.365 157.94 108.365C158.705 108.365 159.395 108.286 160.01 108.128C160.625 107.961 161.184 107.768 161.685 107.548V109.499C161.201 109.745 160.661 109.934 160.063 110.066C159.474 110.198 158.771 110.264 157.954 110.264ZM169.779 108.471C170.14 108.471 170.509 108.44 170.887 108.378C171.265 108.317 171.572 108.242 171.81 108.154V109.855C171.555 109.969 171.199 110.066 170.742 110.145C170.293 110.224 169.854 110.264 169.423 110.264C168.659 110.264 167.964 110.132 167.34 109.868C166.716 109.596 166.215 109.139 165.837 108.497C165.468 107.855 165.284 106.968 165.284 105.834V97.2646H163.227V96.1968L165.297 95.3398L166.167 92.2021H167.485V95.5508H171.717V97.2646H167.485V105.768C167.485 106.673 167.692 107.35 168.105 107.798C168.527 108.247 169.085 108.471 169.779 108.471ZM182.08 90.7256H187.538C189.946 90.7256 191.756 91.0859 192.969 91.8066C194.182 92.5273 194.789 93.7534 194.789 95.4849C194.789 96.2319 194.644 96.9043 194.354 97.502C194.072 98.0908 193.659 98.5786 193.114 98.9653C192.569 99.3521 191.897 99.6201 191.097 99.7695V99.9014C191.941 100.033 192.688 100.275 193.338 100.626C193.989 100.978 194.499 101.47 194.868 102.103C195.237 102.736 195.421 103.54 195.421 104.516C195.421 105.702 195.145 106.704 194.591 107.521C194.046 108.339 193.272 108.958 192.271 109.38C191.269 109.793 190.082 110 188.711 110H182.08V90.7256ZM184.321 98.9917H188.012C189.691 98.9917 190.851 98.7148 191.493 98.1611C192.143 97.6074 192.468 96.7988 192.468 95.7354C192.468 94.6367 192.082 93.8457 191.308 93.3623C190.543 92.8789 189.322 92.6372 187.643 92.6372H184.321V98.9917ZM184.321 100.877V108.088H188.329C190.042 108.088 191.255 107.754 191.967 107.086C192.679 106.41 193.035 105.5 193.035 104.357C193.035 103.628 192.873 103.004 192.547 102.485C192.231 101.967 191.712 101.571 190.992 101.299C190.28 101.018 189.326 100.877 188.131 100.877H184.321ZM204.61 95.3135C206.333 95.3135 207.612 95.7002 208.447 96.4736C209.282 97.2471 209.699 98.4819 209.699 100.178V110H208.104L207.682 107.864H207.577C207.172 108.392 206.75 108.835 206.311 109.196C205.872 109.547 205.362 109.815 204.782 110C204.21 110.176 203.507 110.264 202.672 110.264C201.793 110.264 201.011 110.11 200.326 109.802C199.649 109.495 199.113 109.029 198.717 108.405C198.331 107.781 198.137 106.99 198.137 106.032C198.137 104.59 198.708 103.483 199.851 102.709C200.994 101.936 202.734 101.514 205.072 101.444L207.563 101.338V100.455C207.563 99.207 207.295 98.3325 206.759 97.8315C206.223 97.3306 205.467 97.0801 204.492 97.0801C203.736 97.0801 203.015 97.1899 202.33 97.4097C201.644 97.6294 200.994 97.8887 200.378 98.1875L199.706 96.5264C200.356 96.1924 201.104 95.9067 201.947 95.6694C202.791 95.4321 203.679 95.3135 204.61 95.3135ZM207.537 102.881L205.335 102.973C203.534 103.043 202.264 103.338 201.525 103.856C200.787 104.375 200.418 105.109 200.418 106.058C200.418 106.884 200.668 107.495 201.169 107.891C201.67 108.286 202.334 108.484 203.16 108.484C204.443 108.484 205.494 108.128 206.311 107.416C207.128 106.704 207.537 105.636 207.537 104.212V102.881ZM219.996 110.264C218.695 110.264 217.548 109.996 216.555 109.459C215.562 108.923 214.788 108.106 214.234 107.007C213.681 105.909 213.404 104.524 213.404 102.854C213.404 101.105 213.694 99.6772 214.274 98.5698C214.863 97.4536 215.671 96.6274 216.7 96.0913C217.728 95.5552 218.897 95.2871 220.207 95.2871C220.927 95.2871 221.622 95.3618 222.29 95.5112C222.966 95.6519 223.52 95.832 223.951 96.0518L223.292 97.8843C222.852 97.7085 222.342 97.5503 221.762 97.4097C221.191 97.269 220.655 97.1987 220.154 97.1987C219.152 97.1987 218.317 97.4141 217.649 97.8447C216.99 98.2754 216.493 98.9082 216.159 99.7432C215.834 100.578 215.671 101.606 215.671 102.828C215.671 103.997 215.83 104.995 216.146 105.821C216.471 106.647 216.95 107.28 217.583 107.719C218.225 108.15 219.024 108.365 219.982 108.365C220.747 108.365 221.437 108.286 222.052 108.128C222.667 107.961 223.226 107.768 223.727 107.548V109.499C223.243 109.745 222.703 109.934 222.105 110.066C221.516 110.198 220.813 110.264 219.996 110.264ZM229.33 89.4863V100.139C229.33 100.49 229.316 100.921 229.29 101.431C229.264 101.932 229.242 102.375 229.224 102.762H229.316C229.501 102.534 229.769 102.195 230.121 101.747C230.481 101.299 230.784 100.938 231.03 100.666L235.829 95.5508H238.4L232.586 101.721L238.822 110H236.185L231.083 103.158L229.33 104.766V110H227.154V89.4863H229.33ZM243.542 110H241.34V89.4863H243.542V110ZM260.627 102.749C260.627 103.936 260.474 104.995 260.166 105.926C259.858 106.858 259.415 107.645 258.834 108.286C258.254 108.928 257.551 109.42 256.725 109.763C255.908 110.097 254.98 110.264 253.943 110.264C252.977 110.264 252.089 110.097 251.28 109.763C250.48 109.42 249.786 108.928 249.197 108.286C248.617 107.645 248.165 106.858 247.839 105.926C247.523 104.995 247.365 103.936 247.365 102.749C247.365 101.167 247.633 99.8223 248.169 98.7148C248.705 97.5986 249.47 96.7505 250.463 96.1704C251.465 95.5815 252.656 95.2871 254.036 95.2871C255.354 95.2871 256.505 95.5815 257.49 96.1704C258.483 96.7593 259.252 97.6118 259.797 98.728C260.351 99.8354 260.627 101.176 260.627 102.749ZM249.632 102.749C249.632 103.909 249.786 104.916 250.094 105.768C250.401 106.621 250.876 107.28 251.518 107.746C252.159 108.211 252.985 108.444 253.996 108.444C254.998 108.444 255.82 108.211 256.461 107.746C257.112 107.28 257.591 106.621 257.898 105.768C258.206 104.916 258.36 103.909 258.36 102.749C258.36 101.598 258.206 100.604 257.898 99.7695C257.591 98.9258 257.116 98.2754 256.475 97.8184C255.833 97.3613 255.002 97.1328 253.983 97.1328C252.48 97.1328 251.377 97.6294 250.674 98.6226C249.979 99.6157 249.632 100.991 249.632 102.749ZM268.445 116.486C266.547 116.486 265.083 116.13 264.055 115.418C263.027 114.715 262.513 113.727 262.513 112.452C262.513 111.547 262.798 110.773 263.37 110.132C263.95 109.49 264.75 109.064 265.769 108.853C265.391 108.677 265.066 108.414 264.793 108.062C264.53 107.71 264.398 107.306 264.398 106.849C264.398 106.322 264.543 105.86 264.833 105.465C265.132 105.061 265.584 104.674 266.191 104.305C265.435 103.997 264.82 103.479 264.345 102.749C263.879 102.011 263.646 101.154 263.646 100.178C263.646 99.1411 263.862 98.2578 264.292 97.5283C264.723 96.79 265.347 96.2275 266.165 95.8408C266.982 95.4541 267.971 95.2607 269.131 95.2607C269.386 95.2607 269.641 95.2739 269.896 95.3003C270.159 95.3179 270.41 95.3486 270.647 95.3926C270.884 95.4277 271.091 95.4717 271.267 95.5244H276.224V96.9351L273.561 97.2646C273.824 97.6074 274.044 98.0205 274.22 98.5039C274.396 98.9873 274.483 99.5234 274.483 100.112C274.483 101.554 273.996 102.701 273.02 103.553C272.044 104.397 270.704 104.819 268.999 104.819C268.595 104.819 268.182 104.784 267.76 104.713C267.329 104.951 267 105.214 266.771 105.504C266.551 105.794 266.441 106.128 266.441 106.506C266.441 106.788 266.525 107.012 266.692 107.179C266.868 107.346 267.118 107.469 267.443 107.548C267.769 107.618 268.16 107.653 268.617 107.653H271.161C272.734 107.653 273.938 107.983 274.773 108.642C275.617 109.301 276.039 110.264 276.039 111.529C276.039 113.129 275.389 114.355 274.088 115.208C272.787 116.06 270.906 116.486 268.445 116.486ZM268.511 114.772C269.707 114.772 270.695 114.649 271.478 114.403C272.269 114.166 272.857 113.819 273.244 113.362C273.64 112.914 273.837 112.377 273.837 111.753C273.837 111.173 273.706 110.734 273.442 110.435C273.178 110.145 272.792 109.952 272.282 109.855C271.772 109.75 271.148 109.697 270.41 109.697H267.905C267.254 109.697 266.688 109.798 266.204 110C265.721 110.202 265.347 110.501 265.083 110.896C264.829 111.292 264.701 111.784 264.701 112.373C264.701 113.155 265.031 113.749 265.69 114.153C266.349 114.566 267.29 114.772 268.511 114.772ZM269.078 103.224C270.124 103.224 270.911 102.96 271.438 102.433C271.965 101.905 272.229 101.136 272.229 100.125C272.229 99.0444 271.961 98.2358 271.425 97.6997C270.889 97.1548 270.098 96.8823 269.052 96.8823C268.05 96.8823 267.276 97.1636 266.731 97.7261C266.195 98.2798 265.927 99.0928 265.927 100.165C265.927 101.149 266.2 101.905 266.745 102.433C267.29 102.96 268.067 103.224 269.078 103.224Z" fill="black"/>
<path d="M627.827 110H625.586V90.7256H636.317V92.7031H627.827V99.7695H635.803V101.734H627.827V110ZM644.61 95.3135C646.333 95.3135 647.611 95.7002 648.446 96.4736C649.281 97.2471 649.699 98.4819 649.699 100.178V110H648.104L647.682 107.864H647.576C647.172 108.392 646.75 108.835 646.311 109.196C645.871 109.547 645.361 109.815 644.781 110C644.21 110.176 643.507 110.264 642.672 110.264C641.793 110.264 641.011 110.11 640.325 109.802C639.648 109.495 639.112 109.029 638.717 108.405C638.33 107.781 638.137 106.99 638.137 106.032C638.137 104.59 638.708 103.483 639.851 102.709C640.993 101.936 642.733 101.514 645.071 101.444L647.563 101.338V100.455C647.563 99.207 647.295 98.3325 646.759 97.8315C646.223 97.3306 645.467 97.0801 644.491 97.0801C643.735 97.0801 643.015 97.1899 642.329 97.4097C641.644 97.6294 640.993 97.8887 640.378 98.1875L639.706 96.5264C640.356 96.1924 641.103 95.9067 641.947 95.6694C642.791 95.4321 643.678 95.3135 644.61 95.3135ZM647.537 102.881L645.335 102.973C643.533 103.043 642.263 103.338 641.525 103.856C640.787 104.375 640.417 105.109 640.417 106.058C640.417 106.884 640.668 107.495 641.169 107.891C641.67 108.286 642.333 108.484 643.16 108.484C644.443 108.484 645.493 108.128 646.311 107.416C647.128 106.704 647.537 105.636 647.537 104.212V102.881ZM663.489 110H652.955V108.55L660.878 97.2646H653.456V95.5508H663.317V97.1724L655.5 108.299H663.489V110ZM672.427 95.2871C673.658 95.2871 674.712 95.5596 675.591 96.1045C676.47 96.6494 677.143 97.4141 677.608 98.3984C678.074 99.374 678.307 100.517 678.307 101.826V103.184H668.327C668.354 104.88 668.775 106.172 669.593 107.06C670.41 107.948 671.562 108.392 673.047 108.392C673.961 108.392 674.77 108.308 675.473 108.141C676.176 107.974 676.905 107.728 677.661 107.403V109.328C676.932 109.653 676.207 109.89 675.486 110.04C674.774 110.189 673.93 110.264 672.955 110.264C671.566 110.264 670.353 109.982 669.316 109.42C668.288 108.849 667.488 108.014 666.917 106.915C666.345 105.816 666.06 104.472 666.06 102.881C666.06 101.325 666.319 99.9805 666.837 98.8467C667.365 97.7041 668.103 96.8252 669.052 96.21C670.01 95.5947 671.135 95.2871 672.427 95.2871ZM672.401 97.0801C671.232 97.0801 670.3 97.4624 669.606 98.2271C668.912 98.9917 668.499 100.06 668.367 101.431H676.013C676.004 100.569 675.868 99.8135 675.604 99.1631C675.35 98.5039 674.958 97.9941 674.431 97.6338C673.904 97.2646 673.227 97.0801 672.401 97.0801ZM688.867 95.2871C690.581 95.2871 691.877 95.709 692.756 96.5527C693.635 97.3877 694.075 98.7324 694.075 100.587V110H691.913V100.732C691.913 99.5278 691.636 98.627 691.082 98.0293C690.537 97.4316 689.698 97.1328 688.564 97.1328C686.964 97.1328 685.839 97.5854 685.189 98.4907C684.539 99.396 684.213 100.71 684.213 102.433V110H682.025V95.5508H683.792L684.121 97.6338H684.24C684.547 97.124 684.938 96.6978 685.413 96.355C685.888 96.0034 686.419 95.7397 687.008 95.564C687.597 95.3794 688.217 95.2871 688.867 95.2871ZM703.725 110.264C701.897 110.264 700.447 109.64 699.375 108.392C698.311 107.144 697.779 105.289 697.779 102.828C697.779 100.341 698.324 98.4644 699.414 97.1987C700.504 95.9243 701.954 95.2871 703.765 95.2871C704.529 95.2871 705.197 95.3882 705.769 95.5903C706.34 95.7925 706.832 96.0649 707.245 96.4077C707.658 96.7417 708.005 97.124 708.287 97.5547H708.445C708.41 97.2822 708.375 96.9087 708.339 96.4341C708.304 95.9595 708.287 95.5728 708.287 95.2739V89.4863H710.475V110H708.708L708.379 107.943H708.287C708.014 108.374 707.667 108.765 707.245 109.117C706.832 109.468 706.335 109.75 705.755 109.96C705.184 110.163 704.507 110.264 703.725 110.264ZM704.068 108.444C705.615 108.444 706.709 108.005 707.351 107.126C707.992 106.247 708.313 104.942 708.313 103.21V102.815C708.313 100.978 708.005 99.5674 707.39 98.583C706.784 97.5986 705.676 97.1064 704.068 97.1064C702.723 97.1064 701.717 97.625 701.049 98.6621C700.381 99.6904 700.047 101.097 700.047 102.881C700.047 104.656 700.376 106.027 701.036 106.994C701.704 107.961 702.714 108.444 704.068 108.444ZM727.574 102.749C727.574 103.936 727.42 104.995 727.113 105.926C726.805 106.858 726.361 107.645 725.781 108.286C725.201 108.928 724.498 109.42 723.672 109.763C722.854 110.097 721.927 110.264 720.89 110.264C719.923 110.264 719.036 110.097 718.227 109.763C717.427 109.42 716.733 108.928 716.144 108.286C715.564 107.645 715.111 106.858 714.786 105.926C714.47 104.995 714.312 103.936 714.312 102.749C714.312 101.167 714.58 99.8223 715.116 98.7148C715.652 97.5986 716.417 96.7505 717.41 96.1704C718.412 95.5815 719.603 95.2871 720.982 95.2871C722.301 95.2871 723.452 95.5815 724.437 96.1704C725.43 96.7593 726.199 97.6118 726.744 98.728C727.297 99.8354 727.574 101.176 727.574 102.749ZM716.579 102.749C716.579 103.909 716.733 104.916 717.041 105.768C717.348 106.621 717.823 107.28 718.464 107.746C719.106 108.211 719.932 108.444 720.943 108.444C721.945 108.444 722.767 108.211 723.408 107.746C724.059 107.28 724.538 106.621 724.845 105.768C725.153 104.916 725.307 103.909 725.307 102.749C725.307 101.598 725.153 100.604 724.845 99.7695C724.538 98.9258 724.063 98.2754 723.421 97.8184C722.78 97.3613 721.949 97.1328 720.93 97.1328C719.427 97.1328 718.324 97.6294 717.621 98.6226C716.926 99.6157 716.579 100.991 716.579 102.749Z" fill="black"/>
<path d="M883.481 110H872.75V90.7256H883.481V92.7031H874.991V98.939H882.993V100.89H874.991V108.022H883.481V110ZM894.265 95.2871C895.979 95.2871 897.275 95.709 898.154 96.5527C899.033 97.3877 899.473 98.7324 899.473 100.587V110H897.311V100.732C897.311 99.5278 897.034 98.627 896.48 98.0293C895.935 97.4316 895.096 97.1328 893.962 97.1328C892.362 97.1328 891.237 97.5854 890.587 98.4907C889.937 99.396 889.611 100.71 889.611 102.433V110H887.423V95.5508H889.189L889.519 97.6338H889.638C889.945 97.124 890.336 96.6978 890.811 96.355C891.286 96.0034 891.817 95.7397 892.406 95.564C892.995 95.3794 893.615 95.2871 894.265 95.2871ZM908.648 108.471C909.009 108.471 909.378 108.44 909.756 108.378C910.134 108.317 910.441 108.242 910.679 108.154V109.855C910.424 109.969 910.068 110.066 909.611 110.145C909.163 110.224 908.723 110.264 908.292 110.264C907.528 110.264 906.833 110.132 906.209 109.868C905.585 109.596 905.084 109.139 904.707 108.497C904.337 107.855 904.153 106.968 904.153 105.834V97.2646H902.096V96.1968L904.166 95.3398L905.036 92.2021H906.354V95.5508H910.586V97.2646H906.354V105.768C906.354 106.673 906.561 107.35 906.974 107.798C907.396 108.247 907.954 108.471 908.648 108.471ZM920.171 95.2871C920.461 95.2871 920.764 95.3047 921.081 95.3398C921.397 95.3662 921.678 95.4058 921.924 95.4585L921.647 97.4888C921.41 97.4272 921.146 97.3789 920.856 97.3438C920.566 97.3086 920.294 97.291 920.039 97.291C919.459 97.291 918.91 97.4097 918.391 97.647C917.881 97.8755 917.433 98.2095 917.046 98.6489C916.66 99.0796 916.356 99.6025 916.137 100.218C915.917 100.824 915.807 101.501 915.807 102.248V110H913.605V95.5508H915.425L915.662 98.2139H915.754C916.053 97.6777 916.414 97.1899 916.835 96.7505C917.257 96.3022 917.745 95.9463 918.299 95.6826C918.861 95.4189 919.485 95.2871 920.171 95.2871ZM930.217 95.2871C931.447 95.2871 932.502 95.5596 933.381 96.1045C934.26 96.6494 934.932 97.4141 935.398 98.3984C935.864 99.374 936.097 100.517 936.097 101.826V103.184H926.117C926.143 104.88 926.565 106.172 927.382 107.06C928.2 107.948 929.351 108.392 930.836 108.392C931.75 108.392 932.559 108.308 933.262 108.141C933.965 107.974 934.695 107.728 935.451 107.403V109.328C934.721 109.653 933.996 109.89 933.275 110.04C932.563 110.189 931.72 110.264 930.744 110.264C929.355 110.264 928.143 109.982 927.105 109.42C926.077 108.849 925.277 108.014 924.706 106.915C924.135 105.816 923.849 104.472 923.849 102.881C923.849 101.325 924.108 99.9805 924.627 98.8467C925.154 97.7041 925.893 96.8252 926.842 96.21C927.8 95.5947 928.925 95.2871 930.217 95.2871ZM930.19 97.0801C929.021 97.0801 928.09 97.4624 927.396 98.2271C926.701 98.9917 926.288 100.06 926.156 101.431H933.803C933.794 100.569 933.658 99.8135 933.394 99.1631C933.139 98.5039 932.748 97.9941 932.221 97.6338C931.693 97.2646 931.017 97.0801 930.19 97.0801ZM943.849 116.486C941.95 116.486 940.487 116.13 939.458 115.418C938.43 114.715 937.916 113.727 937.916 112.452C937.916 111.547 938.202 110.773 938.773 110.132C939.353 109.49 940.153 109.064 941.172 108.853C940.794 108.677 940.469 108.414 940.197 108.062C939.933 107.71 939.801 107.306 939.801 106.849C939.801 106.322 939.946 105.86 940.236 105.465C940.535 105.061 940.988 104.674 941.594 104.305C940.838 103.997 940.223 103.479 939.749 102.749C939.283 102.011 939.05 101.154 939.05 100.178C939.05 99.1411 939.265 98.2578 939.696 97.5283C940.126 96.79 940.75 96.2275 941.568 95.8408C942.385 95.4541 943.374 95.2607 944.534 95.2607C944.789 95.2607 945.044 95.2739 945.299 95.3003C945.562 95.3179 945.813 95.3486 946.05 95.3926C946.288 95.4277 946.494 95.4717 946.67 95.5244H951.627V96.9351L948.964 97.2646C949.228 97.6074 949.447 98.0205 949.623 98.5039C949.799 98.9873 949.887 99.5234 949.887 100.112C949.887 101.554 949.399 102.701 948.423 103.553C947.448 104.397 946.107 104.819 944.402 104.819C943.998 104.819 943.585 104.784 943.163 104.713C942.732 104.951 942.403 105.214 942.174 105.504C941.955 105.794 941.845 106.128 941.845 106.506C941.845 106.788 941.928 107.012 942.095 107.179C942.271 107.346 942.521 107.469 942.847 107.548C943.172 107.618 943.563 107.653 944.02 107.653H946.564C948.138 107.653 949.342 107.983 950.177 108.642C951.021 109.301 951.442 110.264 951.442 111.529C951.442 113.129 950.792 114.355 949.491 115.208C948.19 116.06 946.31 116.486 943.849 116.486ZM943.915 114.772C945.11 114.772 946.099 114.649 946.881 114.403C947.672 114.166 948.261 113.819 948.647 113.362C949.043 112.914 949.241 112.377 949.241 111.753C949.241 111.173 949.109 110.734 948.845 110.435C948.582 110.145 948.195 109.952 947.685 109.855C947.175 109.75 946.551 109.697 945.813 109.697H943.308C942.658 109.697 942.091 109.798 941.607 110C941.124 110.202 940.75 110.501 940.487 110.896C940.232 111.292 940.104 111.784 940.104 112.373C940.104 113.155 940.434 113.749 941.093 114.153C941.752 114.566 942.693 114.772 943.915 114.772ZM944.481 103.224C945.527 103.224 946.314 102.96 946.841 102.433C947.369 101.905 947.632 101.136 947.632 100.125C947.632 99.0444 947.364 98.2358 946.828 97.6997C946.292 97.1548 945.501 96.8823 944.455 96.8823C943.453 96.8823 942.68 97.1636 942.135 97.7261C941.599 98.2798 941.331 99.0928 941.331 100.165C941.331 101.149 941.603 101.905 942.148 102.433C942.693 102.96 943.471 103.224 944.481 103.224ZM966.406 95.5508V110H964.613L964.296 107.97H964.178C963.879 108.471 963.492 108.893 963.018 109.235C962.543 109.578 962.007 109.833 961.409 110C960.82 110.176 960.192 110.264 959.524 110.264C958.381 110.264 957.423 110.079 956.65 109.71C955.876 109.341 955.292 108.77 954.896 107.996C954.51 107.223 954.316 106.229 954.316 105.017V95.5508H956.531V104.858C956.531 106.062 956.804 106.963 957.349 107.561C957.894 108.15 958.724 108.444 959.84 108.444C960.913 108.444 961.765 108.242 962.398 107.838C963.04 107.434 963.501 106.84 963.782 106.058C964.063 105.267 964.204 104.3 964.204 103.158V95.5508H966.406ZM976.597 95.2871C977.827 95.2871 978.882 95.5596 979.761 96.1045C980.64 96.6494 981.312 97.4141 981.778 98.3984C982.244 99.374 982.477 100.517 982.477 101.826V103.184H972.497C972.523 104.88 972.945 106.172 973.762 107.06C974.58 107.948 975.731 108.392 977.216 108.392C978.13 108.392 978.939 108.308 979.642 108.141C980.345 107.974 981.075 107.728 981.831 107.403V109.328C981.101 109.653 980.376 109.89 979.655 110.04C978.943 110.189 978.1 110.264 977.124 110.264C975.735 110.264 974.522 109.982 973.485 109.42C972.457 108.849 971.657 108.014 971.086 106.915C970.515 105.816 970.229 104.472 970.229 102.881C970.229 101.325 970.488 99.9805 971.007 98.8467C971.534 97.7041 972.272 96.8252 973.222 96.21C974.18 95.5947 975.305 95.2871 976.597 95.2871ZM976.57 97.0801C975.401 97.0801 974.47 97.4624 973.775 98.2271C973.081 98.9917 972.668 100.06 972.536 101.431H980.183C980.174 100.569 980.038 99.8135 979.774 99.1631C979.519 98.5039 979.128 97.9941 978.601 97.6338C978.073 97.2646 977.396 97.0801 976.57 97.0801Z" fill="black"/>
<rect x="300.5" y="50.5" width="250" height="506" stroke="black"/>
<rect x="50.5" y="50.5" width="250" height="506" stroke="black"/>
<rect x="550.5" y="50.5" width="250" height="506" stroke="black"/>
<rect x="800.5" y="50.5" width="250" height="506" stroke="black"/>
<g filter="url(#filter0_d_22_182)">
<rect x="381" y="200" width="113" height="71" fill="#D9D9D9"/>
</g>
<g filter="url(#filter1_d_22_182)">
<rect x="124" y="146" width="112" height="71" fill="#D9D9D9"/>
</g>
<g filter="url(#filter2_d_22_182)">
<rect x="133" y="316" width="112" height="72" fill="#D9D9D9"/>
</g>
<g filter="url(#filter3_d_22_182)">
<rect x="97" y="413" width="113" height="72" fill="#D9D9D9"/>
</g>
<g filter="url(#filter4_d_22_182)">
<rect x="359" y="296" width="112" height="71" fill="#D9D9D9"/>
</g>
<g filter="url(#filter5_d_22_182)">
<rect x="83" y="230" width="112" height="72" fill="#D9D9D9"/>
</g>
<g filter="url(#filter6_d_22_182)">
<rect x="628" y="182" width="112" height="72" fill="#D9D9D9"/>
</g>
<g filter="url(#filter7_d_22_182)">
<rect x="611" y="269" width="113" height="71" fill="#D9D9D9"/>
</g>
<g filter="url(#filter8_d_22_182)">
<rect x="871" y="178" width="112" height="71" fill="#D9D9D9"/>
</g>
<g filter="url(#filter9_d_22_182)">
<rect x="848" y="268" width="112" height="72" fill="#D9D9D9"/>
</g>
<defs>
<filter id="filter0_d_22_182" x="377" y="200" width="121" height="79" filterUnits="userSpaceOnUse" color-interpolation-filters="sRGB">
<feFlood flood-opacity="0" result="BackgroundImageFix"/>
<feColorMatrix in="SourceAlpha" type="matrix" values="0 0 0 0 0 0 0 0 0 0 0 0 0 0 0 0 0 0 127 0" result="hardAlpha"/>
<feOffset dy="4"/>
<feGaussianBlur stdDeviation="2"/>
<feComposite in2="hardAlpha" operator="out"/>
<feColorMatrix type="matrix" values="0 0 0 0 0 0 0 0 0 0 0 0 0 0 0 0 0 0 0.25 0"/>
<feBlend mode="normal" in2="BackgroundImageFix" result="effect1_dropShadow_22_182"/>
<feBlend mode="normal" in="SourceGraphic" in2="effect1_dropShadow_22_182" result="shape"/>
</filter>
<filter id="filter1_d_22_182" x="120" y="146" width="120" height="79" filterUnits="userSpaceOnUse" color-interpolation-filters="sRGB">
<feFlood flood-opacity="0" result="BackgroundImageFix"/>
<feColorMatrix in="SourceAlpha" type="matrix" values="0 0 0 0 0 0 0 0 0 0 0 0 0 0 0 0 0 0 127 0" result="hardAlpha"/>
<feOffset dy="4"/>
<feGaussianBlur stdDeviation="2"/>
<feComposite in2="hardAlpha" operator="out"/>
<feColorMatrix type="matrix" values="0 0 0 0 0 0 0 0 0 0 0 0 0 0 0 0 0 0 0.25 0"/>
<feBlend mode="normal" in2="BackgroundImageFix" result="effect1_dropShadow_22_182"/>
<feBlend mode="normal" in="SourceGraphic" in2="effect1_dropShadow_22_182" result="shape"/>
</filter>
<filter id="filter2_d_22_182" x="129" y="316" width="120" height="80" filterUnits="userSpaceOnUse" color-interpolation-filters="sRGB">
<feFlood flood-opacity="0" result="BackgroundImageFix"/>
<feColorMatrix in="SourceAlpha" type="matrix" values="0 0 0 0 0 0 0 0 0 0 0 0 0 0 0 0 0 0 127 0" result="hardAlpha"/>
<feOffset dy="4"/>
<feGaussianBlur stdDeviation="2"/>
<feComposite in2="hardAlpha" operator="out"/>
<feColorMatrix type="matrix" values="0 0 0 0 0 0 0 0 0 0 0 0 0 0 0 0 0 0 0.25 0"/>
<feBlend mode="normal" in2="BackgroundImageFix" result="effect1_dropShadow_22_182"/>
<feBlend mode="normal" in="SourceGraphic" in2="effect1_dropShadow_22_182" result="shape"/>
</filter>
<filter id="filter3_d_22_182" x="93" y="413" width="121" height="80" filterUnits="userSpaceOnUse" color-interpolation-filters="sRGB">
<feFlood flood-opacity="0" result="BackgroundImageFix"/>
<feColorMatrix in="SourceAlpha" type="matrix" values="0 0 0 0 0 0 0 0 0 0 0 0 0 0 0 0 0 0 127 0" result="hardAlpha"/>
<feOffset dy="4"/>
<feGaussianBlur stdDeviation="2"/>
<feComposite in2="hardAlpha" operator="out"/>
<feColorMatrix type="matrix" values="0 0 0 0 0 0 0 0 0 0 0 0 0 0 0 0 0 0 0.25 0"/>
<feBlend mode="normal" in2="BackgroundImageFix" result="effect1_dropShadow_22_182"/>
<feBlend mode="normal" in="SourceGraphic" in2="effect1_dropShadow_22_182" result="shape"/>
</filter>
<filter id="filter4_d_22_182" x="355" y="296" width="120" height="79" filterUnits="userSpaceOnUse" color-interpolation-filters="sRGB">
<feFlood flood-opacity="0" result="BackgroundImageFix"/>
<feColorMatrix in="SourceAlpha" type="matrix" values="0 0 0 0 0 0 0 0 0 0 0 0 0 0 0 0 0 0 127 0" result="hardAlpha"/>
<feOffset dy="4"/>
<feGaussianBlur stdDeviation="2"/>
<feComposite in2="hardAlpha" operator="out"/>
<feColorMatrix type="matrix" values="0 0 0 0 0 0 0 0 0 0 0 0 0 0 0 0 0 0 0.25 0"/>
<feBlend mode="normal" in2="BackgroundImageFix" result="effect1_dropShadow_22_182"/>
<feBlend mode="normal" in="SourceGraphic" in2="effect1_dropShadow_22_182" result="shape"/>
</filter>
<filter id="filter5_d_22_182" x="79" y="230" width="120" height="80" filterUnits="userSpaceOnUse" color-interpolation-filters="sRGB">
<feFlood flood-opacity="0" result="BackgroundImageFix"/>
<feColorMatrix in="SourceAlpha" type="matrix" values="0 0 0 0 0 0 0 0 0 0 0 0 0 0 0 0 0 0 127 0" result="hardAlpha"/>
<feOffset dy="4"/>
<feGaussianBlur stdDeviation="2"/>
<feComposite in2="hardAlpha" operator="out"/>
<feColorMatrix type="matrix" values="0 0 0 0 0 0 0 0 0 0 0 0 0 0 0 0 0 0 0.25 0"/>
<feBlend mode="normal" in2="BackgroundImageFix" result="effect1_dropShadow_22_182"/>
<feBlend mode="normal" in="SourceGraphic" in2="effect1_dropShadow_22_182" result="shape"/>
</filter>
<filter id="filter6_d_22_182" x="624" y="182" width="120" height="80" filterUnits="userSpaceOnUse" color-interpolation-filters="sRGB">
<feFlood flood-opacity="0" result="BackgroundImageFix"/>
<feColorMatrix in="SourceAlpha" type="matrix" values="0 0 0 0 0 0 0 0 0 0 0 0 0 0 0 0 0 0 127 0" result="hardAlpha"/>
<feOffset dy="4"/>
<feGaussianBlur stdDeviation="2"/>
<feComposite in2="hardAlpha" operator="out"/>
<feColorMatrix type="matrix" values="0 0 0 0 0 0 0 0 0 0 0 0 0 0 0 0 0 0 0.25 0"/>
<feBlend mode="normal" in2="BackgroundImageFix" result="effect1_dropShadow_22_182"/>
<feBlend mode="normal" in="SourceGraphic" in2="effect1_dropShadow_22_182" result="shape"/>
</filter>
<filter id="filter7_d_22_182" x="607" y="269" width="121" height="79" filterUnits="userSpaceOnUse" color-interpolation-filters="sRGB">
<feFlood flood-opacity="0" result="BackgroundImageFix"/>
<feColorMatrix in="SourceAlpha" type="matrix" values="0 0 0 0 0 0 0 0 0 0 0 0 0 0 0 0 0 0 127 0" result="hardAlpha"/>
<feOffset dy="4"/>
<feGaussianBlur stdDeviation="2"/>
<feComposite in2="hardAlpha" operator="out"/>
<feColorMatrix type="matrix" values="0 0 0 0 0 0 0 0 0 0 0 0 0 0 0 0 0 0 0.25 0"/>
<feBlend mode="normal" in2="BackgroundImageFix" result="effect1_dropShadow_22_182"/>
<feBlend mode="normal" in="SourceGraphic" in2="effect1_dropShadow_22_182" result="shape"/>
</filter>
<filter id="filter8_d_22_182" x="867" y="178" width="120" height="79" filterUnits="userSpaceOnUse" color-interpolation-filters="sRGB">
<feFlood flood-opacity="0" result="BackgroundImageFix"/>
<feColorMatrix in="SourceAlpha" type="matrix" values="0 0 0 0 0 0 0 0 0 0 0 0 0 0 0 0 0 0 127 0" result="hardAlpha"/>
<feOffset dy="4"/>
<feGaussianBlur stdDeviation="2"/>
<feComposite in2="hardAlpha" operator="out"/>
<feColorMatrix type="matrix" values="0 0 0 0 0 0 0 0 0 0 0 0 0 0 0 0 0 0 0.25 0"/>
<feBlend mode="normal" in2="BackgroundImageFix" result="effect1_dropShadow_22_182"/>
<feBlend mode="normal" in="SourceGraphic" in2="effect1_dropShadow_22_182" result="shape"/>
</filter>
<filter id="filter9_d_22_182" x="844" y="268" width="120" height="80" filterUnits="userSpaceOnUse" color-interpolation-filters="sRGB">
<feFlood flood-opacity="0" result="BackgroundImageFix"/>
<feColorMatrix in="SourceAlpha" type="matrix" values="0 0 0 0 0 0 0 0 0 0 0 0 0 0 0 0 0 0 127 0" result="hardAlpha"/>
<feOffset dy="4"/>
<feGaussianBlur stdDeviation="2"/>
<feComposite in2="hardAlpha" operator="out"/>
<feColorMatrix type="matrix" values="0 0 0 0 0 0 0 0 0 0 0 0 0 0 0 0 0 0 0.25 0"/>
<feBlend mode="normal" in2="BackgroundImageFix" result="effect1_dropShadow_22_182"/>
<feBlend mode="normal" in="SourceGraphic" in2="effect1_dropShadow_22_182" result="shape"/>
</filter>
</defs>
</svg>
